<svg id="Logo_municipal" data-name="Logo municipal" xmlns="http://www.w3.org/2000/svg" viewBox="0 0 2160 2160"><defs><style>.cls-1{fill:#fff;}.cls-2{fill:#393939;}.cls-3{fill:#4a4a4a;}.cls-4{fill:#8e8e8e;}.cls-5{fill:#696969;}.cls-6{fill:#888;}.cls-7{fill:#4b4b4b;}.cls-8{fill:#787878;}.cls-9{fill:#585858;}.cls-10{fill:#323232;}</style></defs><title>Municipalidad de la Florida gris sin relleno exterior 201907301230</title><g id="Gris"><g id="Borde_Blanco" data-name="Borde Blanco"><path class="cls-1" d="M1080,0C483.5325,0,0,483.5325,0,1080S483.5325,2160,1080,2160s1080-483.5325,1080-1080S1676.4675,0,1080,0Zm0,2100C516.67,2100,60,1643.33,60,1080S516.67,60,1080,60,2100,516.67,2100,1080,1643.33,2100,1080,2100Z"/></g><g id="Circulo_Exterior" data-name="Circulo Exterior"><path class="cls-2" d="M1080,6a1081.9668,1081.9668,0,0,1,216.4547,21.82A1068.08,1068.08,0,0,1,1680.48,189.4189a1077.1555,1077.1555,0,0,1,389.1227,472.5336A1068.5515,1068.5515,0,0,1,2132.18,863.5453a1084.5317,1084.5317,0,0,1,0,432.9094,1068.0827,1068.0827,0,0,1-161.599,384.0248,1077.154,1077.154,0,0,1-472.5336,389.1227,1068.5538,1068.5538,0,0,1-201.5928,62.5779,1084.5317,1084.5317,0,0,1-432.9094,0,1068.0813,1068.0813,0,0,1-384.0247-161.599A1077.1535,1077.1535,0,0,1,90.3978,1498.0475,1068.5462,1068.5462,0,0,1,27.82,1296.4547a1084.5268,1084.5268,0,0,1,0-432.9094A1068.0787,1068.0787,0,0,1,189.4189,479.5206,1077.155,1077.155,0,0,1,661.9525,90.3978,1068.5439,1068.5439,0,0,1,863.5453,27.82,1081.9683,1081.9683,0,0,1,1080,6m0-6C483.5325,0,0,483.5325,0,1080S483.5325,2160,1080,2160s1080-483.5325,1080-1080S1676.4675,0,1080,0Z"/></g><g id="Relleno_Interior" data-name="Relleno Interior"><path class="cls-1" d="M1080,389c-381.6288,0-691,309.3712-691,691s309.3712,691,691,691,691-309.3713,691-691S1461.6288,389,1080,389ZM803.0019,659.9963A121.033,121.033,0,0,1,922,561c1.1445,0,2.2845.0193,3.4214.0508.2258.0065.45.018.6758.0257q1.4206.0474,2.8335.1256c.17.01.3393.0218.5092.0323q1.5438.0936,3.0771.2256c.0736.0064.1471.0131.2206.02a120.2678,120.2678,0,0,1,53.8862,18.2121h0l0,0a121.4325,121.4325,0,0,1,15.4265,11.5818l.07.0624q1.1661,1.0313,2.3052,2.092l.0732.0681q1.1591,1.0811,2.29,2.1913l.0006.0007h0c20.921,17.0085,45.6179,38.2114,73.21,62.8471,27.5869-24.6311,52.2668-45.8163,73.184-62.8218A120.9938,120.9938,0,0,1,1332.51,757.5518c-42.9355,57.6508-109.4761,134.9427-190.1152,219.9271a120.1039,120.1039,0,0,0-124.7851-.0022c-80.709-85.0585-147.3346-162.44-190.2645-220.1061q-2.893-3.6283-5.5116-7.4758A120.435,120.435,0,0,1,801,682,121.6715,121.6715,0,0,1,803.0019,659.9963Zm-53.0935,678.1612A120.4348,120.4348,0,0,1,682,1359a121.0165,121.0165,0,0,1-120.1774-135.1027,120.249,120.249,0,0,1,17.8742-50.5293,121.5269,121.5269,0,0,1,15.99-20.1561c17.0067-20.92,38.2122-45.6186,62.849-73.2119h0c-24.6338-27.5905-45.8422-52.2925-62.8486-73.2119a121.5268,121.5268,0,0,1-15.99-20.1563,120.2485,120.2485,0,0,1-17.8741-50.5291A120.921,120.921,0,0,1,682,801a120.4348,120.4348,0,0,1,67.9084,20.8425q3.85,2.6155,7.4809,5.5172c57.6634,42.93,135.0374,109.55,220.0867,190.2506a120.1039,120.1039,0,0,0,.0034,124.7848c-85.055,80.7062-162.4241,147.3136-220.09,190.2455Q753.7584,1335.5365,749.9084,1338.1575ZM1356.9969,1500.01a120.9616,120.9616,0,0,1-203.7847,64.3042c-20.92-17.0067-45.6187-38.2123-73.2122-62.8493-27.5935,24.637-52.2924,45.8426-73.2122,62.8493a121.5219,121.5219,0,0,1-20.1558,15.9894,120.25,120.25,0,0,1-50.5293,17.8742A120.921,120.921,0,0,1,801,1478a120.4348,120.4348,0,0,1,20.8425-67.9084q2.6155-3.85,5.5172-7.4809c42.9318-57.6662,109.5392-135.0353,190.2452-220.09a120.1036,120.1036,0,0,0,124.79,0c80.706,85.0548,147.3134,162.4239,190.2452,220.09q2.896,3.6308,5.5172,7.4809A120.4348,120.4348,0,0,1,1359,1478,121.6637,121.6637,0,0,1,1356.9969,1500.01ZM1500.01,1356.9969A121.6637,121.6637,0,0,1,1478,1359a120.4348,120.4348,0,0,1-67.9084-20.8425q-3.85-2.6154-7.4806-5.5169c-57.6663-42.9319-135.0354-109.5393-220.09-190.2455a120.1036,120.1036,0,0,0,0-124.79c85.0548-80.706,162.4239-147.3134,220.09-190.2452q3.6308-2.8961,7.4809-5.5172A120.4348,120.4348,0,0,1,1478,801a121.0165,121.0165,0,0,1,120.1774,135.1027,120.2492,120.2492,0,0,1-17.8744,50.5294,121.5285,121.5285,0,0,1-15.989,20.1556c-17.0069,20.92-38.2124,45.6188-62.85,73.2123,24.637,27.5934,45.8426,52.2924,62.85,73.2122a121.5363,121.5363,0,0,1,15.989,20.1554,120.2505,120.2505,0,0,1,17.8744,50.53,121.0371,121.0371,0,0,1-98.1678,133.1Z"/></g><g id="Arcos_Grises" data-name="Arcos Grises"><g id="Arco_Inferior_Verde" data-name="Arco Inferior Verde"><path class="cls-2" d="M1080,1771c-381.6288,0-691-309.3713-691-691H60c0,563.33,456.67,1020,1020,1020s1020-456.67,1020-1020H1771C1771,1461.6287,1461.6288,1771,1080,1771Z"/></g><g id="Arco_Superior_Azul" data-name="Arco Superior Azul"><path class="cls-3" d="M1080,389c381.6288,0,691,309.3712,691,691h329C2100,516.67,1643.33,60,1080,60S60,516.67,60,1080H389C389,698.3712,698.3712,389,1080,389Z"/></g></g><g id="Petalos_Grises" data-name="Petalos Grises"><path id="Petalo_Verde" data-name="Petalo Verde" class="cls-2" d="M1500.01,803.0031A121.6637,121.6637,0,0,0,1478,801a120.4348,120.4348,0,0,0-67.9084,20.8425q-3.85,2.6155-7.4809,5.5172c-57.6662,42.9318-135.0353,109.5392-220.09,190.2452A119.4371,119.4371,0,0,1,1200,1080h301.4645c24.6371-27.5935,45.8426-52.2924,62.85-73.2123a121.5285,121.5285,0,0,0,15.989-20.1556,120.2492,120.2492,0,0,0,17.8744-50.5294,121.0371,121.0371,0,0,0-98.1678-133.1Z"/><path id="Petalo_Amarela" data-name="Petalo Amarela" class="cls-4" d="M1598.1774,1223.8973a120.2505,120.2505,0,0,0-17.8744-50.53,121.5363,121.5363,0,0,0-15.989-20.1554c-17.0069-20.92-38.2125-45.6188-62.85-73.2122H1200a119.4371,119.4371,0,0,1-17.4794,62.3951c85.055,80.7062,162.4241,147.3136,220.09,190.2455q3.6306,2.8959,7.4806,5.5169A120.4348,120.4348,0,0,0,1478,1359a121.0165,121.0165,0,0,0,120.1774-135.1027Z"/><path id="Petalo_Naranja" data-name="Petalo Naranja" class="cls-5" d="M1338.1575,1410.0916q-2.6155-3.85-5.5172-7.4809c-42.9318-57.6662-109.5392-135.0353-190.2452-220.09A119.4371,119.4371,0,0,1,1080,1200v301.4645c27.5935,24.637,52.2924,45.8426,73.2122,62.8493a121.5219,121.5219,0,0,0,20.1558,15.9894,120.25,120.25,0,0,0,50.5293,17.8742A120.921,120.921,0,0,0,1359,1478,120.4348,120.4348,0,0,0,1338.1575,1410.0916Z"/><path id="Petalo_Magenta" data-name="Petalo Magenta" class="cls-6" d="M1017.6049,1182.5206c-80.706,85.0548-147.3134,162.4239-190.2452,220.09q-2.8961,3.6308-5.5172,7.4809A120.4348,120.4348,0,0,0,801,1478a121.0165,121.0165,0,0,0,135.1027,120.1774,120.25,120.25,0,0,0,50.5293-17.8742,121.5219,121.5219,0,0,0,20.1558-15.9894c20.92-17.0067,45.6187-38.2123,73.2122-62.8493V1200A119.4371,119.4371,0,0,1,1017.6049,1182.5206Z"/><path id="Petalo_Azúl" data-name="Petalo Azúl" class="cls-7" d="M960,1080H658.5355c-24.6368,27.5933-45.8423,52.2921-62.849,73.2119a121.5269,121.5269,0,0,0-15.99,20.1561,120.249,120.249,0,0,0-17.8742,50.5293A120.921,120.921,0,0,0,682,1359a120.4348,120.4348,0,0,0,67.9084-20.8425q3.85-2.6154,7.4806-5.5169c57.6663-42.9319,135.0354-109.5393,220.09-190.2455A119.4371,119.4371,0,0,1,960,1080Z"/><path id="Petalo_Celeste" data-name="Petalo Celeste" class="cls-8" d="M757.3893,827.36q-3.6308-2.8961-7.4809-5.5172A120.4348,120.4348,0,0,0,682,801,121.0165,121.0165,0,0,0,561.8226,936.1027a120.2485,120.2485,0,0,0,17.8741,50.5291,121.5268,121.5268,0,0,0,15.99,20.1563c17.0064,20.9194,38.2148,45.6214,62.8486,73.2119H960a119.437,119.437,0,0,1,17.476-62.39C892.4267,936.91,815.0527,870.2894,757.3893,827.36Z"/><path id="Petalo_Rosado" data-name="Petalo Rosado" class="cls-9" d="M1238,561a120.6011,120.6011,0,0,0-84.816,34.7137c-20.9172,17.0055-45.5971,38.1907-73.184,62.8218V960a119.4362,119.4362,0,0,1,62.3943,17.4789c80.6391-84.9844,147.18-162.2763,190.1152-219.9271A120.9957,120.9957,0,0,0,1238,561Z"/><path id="Petalo_Morado" data-name="Petalo Morado" class="cls-10" d="M1080,911V658.5355c-27.592-24.6357-52.2889-45.8386-73.21-62.8471h0l-.0006-.0007q-1.1307-1.1108-2.29-2.1913l-.0732-.0681q-1.1391-1.0607-2.3052-2.092l-.07-.0624a121.4325,121.4325,0,0,0-15.4265-11.5818l0,0h0A120.2678,120.2678,0,0,0,932.7376,561.48c-.0735-.0065-.147-.0132-.2206-.02q-1.5331-.1322-3.0771-.2256c-.17-.0105-.3393-.0225-.5092-.0323q-1.4124-.08-2.8335-.1256c-.2256-.0077-.45-.0192-.6758-.0257C924.2845,561.0193,923.1445,561,922,561A121.0119,121.0119,0,0,0,821.8331,749.8948q2.613,3.8475,5.5116,7.4758c42.93,57.6657,109.5555,135.0476,190.2645,220.1061A119.4372,119.4372,0,0,1,1080,960Z"/></g></g></svg>