<svg id="Logo_municipal" data-name="Logo municipal" xmlns="http://www.w3.org/2000/svg" viewBox="0 0 2166 2166"><defs><style>.cls-1{fill:#fff;}.cls-2{fill:none;stroke:#981e61;stroke-miterlimit:10;stroke-width:6px;}.cls-3{fill:#981e61;}</style></defs><title>Municipalidad de la Florida morado con relleno exterior 201907301230</title><g id="Morado"><path id="Relleno_Exterior" data-name="Relleno Exterior" class="cls-1" d="M-.5-.5v2161h2161V-.5ZM1080,2160C483.5325,2160,0,1676.4675,0,1080S483.5325,0,1080,0,2160,483.5325,2160,1080,1676.4675,2160,1080,2160Z" transform="translate(3 3)"/><g id="Borde_Blanco" data-name="Borde Blanco"><path class="cls-1" d="M1080,0C483.5325,0,0,483.5325,0,1080S483.5325,2160,1080,2160s1080-483.5325,1080-1080S1676.4675,0,1080,0Zm0,2100C516.67,2100,60,1643.33,60,1080S516.67,60,1080,60,2100,516.67,2100,1080,1643.33,2100,1080,2100Z" transform="translate(3 3)"/></g><circle id="Circulo_Exterior" data-name="Circulo Exterior" class="cls-2" cx="1083" cy="1083" r="1080"/><g id="Relleno_Interior" data-name="Relleno Interior"><path class="cls-1" d="M1080,389c-381.6288,0-691,309.3712-691,691s309.3712,691,691,691,691-309.3713,691-691S1461.6288,389,1080,389ZM803.0019,659.9963A121.033,121.033,0,0,1,922,561c1.1445,0,2.2845.0193,3.4214.0508.2258.0065.45.018.6758.0257q1.4206.0474,2.8335.1256c.17.01.3393.0218.5092.0323q1.5438.0936,3.0771.2256c.0736.0064.1471.0131.2206.02a120.2678,120.2678,0,0,1,53.8862,18.2121h0l0,0a121.4325,121.4325,0,0,1,15.4265,11.5818l.07.0624q1.1661,1.0313,2.3052,2.092l.0732.0681q1.1591,1.0811,2.29,2.1913l.0006.0007h0c20.921,17.0085,45.6179,38.2114,73.21,62.8471,27.5869-24.6311,52.2668-45.8163,73.184-62.8218A120.9938,120.9938,0,0,1,1332.51,757.5518c-42.9355,57.6508-109.4761,134.9427-190.1152,219.9271a120.1039,120.1039,0,0,0-124.7851-.0022c-80.709-85.0585-147.3346-162.44-190.2645-220.1061q-2.893-3.6283-5.5116-7.4758A120.435,120.435,0,0,1,801,682,121.6715,121.6715,0,0,1,803.0019,659.9963Zm-53.0935,678.1612A120.4348,120.4348,0,0,1,682,1359a121.0165,121.0165,0,0,1-120.1774-135.1027,120.249,120.249,0,0,1,17.8742-50.5293,121.5269,121.5269,0,0,1,15.99-20.1561c17.0067-20.92,38.2122-45.6186,62.849-73.2119h0c-24.6338-27.5905-45.8422-52.2925-62.8486-73.2119a121.5268,121.5268,0,0,1-15.99-20.1563,120.2485,120.2485,0,0,1-17.8741-50.5291A120.921,120.921,0,0,1,682,801a120.4348,120.4348,0,0,1,67.9084,20.8425q3.85,2.6155,7.4809,5.5172c57.6634,42.93,135.0374,109.55,220.0867,190.2506a120.1039,120.1039,0,0,0,.0034,124.7848c-85.055,80.7062-162.4241,147.3136-220.09,190.2455Q753.7584,1335.5365,749.9084,1338.1575ZM1356.9969,1500.01a120.9616,120.9616,0,0,1-203.7847,64.3042c-20.92-17.0067-45.6187-38.2123-73.2122-62.8493-27.5935,24.637-52.2924,45.8426-73.2122,62.8493a121.5219,121.5219,0,0,1-20.1558,15.9894,120.25,120.25,0,0,1-50.5293,17.8742A120.921,120.921,0,0,1,801,1478a120.4348,120.4348,0,0,1,20.8425-67.9084q2.6155-3.85,5.5172-7.4809c42.9318-57.6662,109.5392-135.0353,190.2452-220.09a120.1036,120.1036,0,0,0,124.79,0c80.706,85.0548,147.3134,162.4239,190.2452,220.09q2.896,3.6308,5.5172,7.4809A120.4348,120.4348,0,0,1,1359,1478,121.6637,121.6637,0,0,1,1356.9969,1500.01ZM1500.01,1356.9969A121.6637,121.6637,0,0,1,1478,1359a120.4348,120.4348,0,0,1-67.9084-20.8425q-3.85-2.6154-7.4806-5.5169c-57.6663-42.9319-135.0354-109.5393-220.09-190.2455a120.1036,120.1036,0,0,0,0-124.79c85.0548-80.706,162.4239-147.3134,220.09-190.2452q3.6308-2.8961,7.4809-5.5172A120.4348,120.4348,0,0,1,1478,801a121.0165,121.0165,0,0,1,120.1774,135.1027,120.2492,120.2492,0,0,1-17.8744,50.5294,121.5285,121.5285,0,0,1-15.989,20.1556c-17.0069,20.92-38.2124,45.6188-62.85,73.2123,24.637,27.5934,45.8426,52.2924,62.85,73.2122a121.5363,121.5363,0,0,1,15.989,20.1554,120.2505,120.2505,0,0,1,17.8744,50.53,121.0371,121.0371,0,0,1-98.1678,133.1Z" transform="translate(3 3)"/></g><path id="Arcos_Morados" data-name="Arcos Morados" class="cls-3" d="M1080,60C516.67,60,60,516.67,60,1080S516.67,2100,1080,2100s1020-456.67,1020-1020S1643.33,60,1080,60Zm0,1711c-381.6288,0-691-309.3713-691-691s309.3712-691,691-691,691,309.3712,691,691S1461.6288,1771,1080,1771Z" transform="translate(3 3)"/><g id="Petalos_Morados" data-name="Petalos Morados"><path id="Petalos_Izquierdos_Morados" data-name="Petalos Izquierdos Morados" class="cls-3" d="M960,1080a119.437,119.437,0,0,1,17.476-62.39C892.4267,936.91,815.0527,870.2894,757.3893,827.36q-3.6308-2.8961-7.4809-5.5172A120.4348,120.4348,0,0,0,682,801,121.0165,121.0165,0,0,0,561.8226,936.1027a120.2485,120.2485,0,0,0,17.8741,50.5291,121.5268,121.5268,0,0,0,15.99,20.1563c17.0064,20.9194,38.2148,45.6214,62.8486,73.2119h0c-24.6368,27.5933-45.8423,52.2921-62.849,73.2119a121.5269,121.5269,0,0,0-15.99,20.1561,120.249,120.249,0,0,0-17.8742,50.5293A120.921,120.921,0,0,0,682,1359a120.4348,120.4348,0,0,0,67.9084-20.8425q3.85-2.6154,7.4806-5.5169c57.6663-42.9319,135.0354-109.5393,220.09-190.2455A119.4371,119.4371,0,0,1,960,1080Z" transform="translate(3 3)"/><path id="Petalos_Derechos_Morados" data-name="Petalos Derechos Morados" class="cls-3" d="M1580.303,1173.3676a121.5363,121.5363,0,0,0-15.989-20.1554c-17.0069-20.92-38.2125-45.6188-62.85-73.2122,24.6371-27.5935,45.8426-52.2924,62.85-73.2123a121.5285,121.5285,0,0,0,15.989-20.1556,120.2492,120.2492,0,0,0,17.8744-50.5294A120.921,120.921,0,0,0,1478,801a120.4348,120.4348,0,0,0-67.9084,20.8425q-3.85,2.6155-7.4809,5.5172c-57.6662,42.9318-135.0353,109.5392-220.09,190.2452a120.1036,120.1036,0,0,1,0,124.79c85.055,80.7062,162.4241,147.3136,220.09,190.2455q3.6306,2.8959,7.4806,5.5169A120.4348,120.4348,0,0,0,1478,1359a121.0165,121.0165,0,0,0,120.1774-135.1027A120.2505,120.2505,0,0,0,1580.303,1173.3676Z" transform="translate(3 3)"/><path id="Petalos_Inferiores_Morados" data-name="Petalos Inferiores Morados" class="cls-3" d="M1332.64,1402.6107c-42.9318-57.6662-109.5392-135.0353-190.2452-220.09a120.1036,120.1036,0,0,1-124.79,0c-80.706,85.0548-147.3134,162.4239-190.2452,220.09q-2.8961,3.6308-5.5172,7.4809A120.4348,120.4348,0,0,0,801,1478a121.0165,121.0165,0,0,0,135.1027,120.1774,120.25,120.25,0,0,0,50.5293-17.8742,121.5219,121.5219,0,0,0,20.1558-15.9894c20.92-17.0067,45.6187-38.2123,73.2122-62.8493,27.5935,24.637,52.2924,45.8426,73.2122,62.8493a121.5219,121.5219,0,0,0,20.1558,15.9894,120.25,120.25,0,0,0,50.5293,17.8742A120.921,120.921,0,0,0,1359,1478a120.4348,120.4348,0,0,0-20.8425-67.9084Q1335.542,1406.2414,1332.64,1402.6107Z" transform="translate(3 3)"/><path id="Petalos_Superiores_Morados" data-name="Petalos Superiores Morados" class="cls-3" d="M827.3447,757.3706c42.93,57.6657,109.5555,135.0476,190.2645,220.1061a120.1039,120.1039,0,0,1,124.7851.0022c80.6391-84.9844,147.18-162.2763,190.1152-219.9271A120.9936,120.9936,0,0,0,1153.184,595.7137c-20.9172,17.0055-45.5971,38.1907-73.184,62.8218-27.592-24.6357-52.2889-45.8386-73.21-62.8471h0l-.0006-.0007q-1.1307-1.1108-2.29-2.1913l-.0732-.0681q-1.1391-1.0607-2.3052-2.092l-.07-.0624a121.4325,121.4325,0,0,0-15.4265-11.5818l0,0h0A120.2678,120.2678,0,0,0,932.7376,561.48c-.0735-.0065-.147-.0132-.2206-.02q-1.5331-.1322-3.0771-.2256c-.17-.0105-.3393-.0225-.5092-.0323q-1.4124-.08-2.8335-.1256c-.2256-.0077-.45-.0192-.6758-.0257C924.2845,561.0193,923.1445,561,922,561A121.0119,121.0119,0,0,0,821.8331,749.8948Q824.4461,753.7423,827.3447,757.3706Z" transform="translate(3 3)"/></g></g></svg>