<svg id="Logo_carabineros" data-name="Logo carabineros" xmlns="http://www.w3.org/2000/svg" viewBox="0 0 2050 2150"><defs><style>.cls-1{fill:#007328;}.cls-2{fill:#fff;}</style></defs><title>Carabineros Original</title><path class="cls-1" d="M2104.7172,1337.8132q-.0314-2.6964-.0868-5.3836c.0127-.533.0266-1.0658.0356-1.6q.0771-4.568.084-9.1537a528.2376,528.2376,0,0,0-37.3208-196.0107c-1.69-4.236-3.45-8.4323-5.2449-12.6081-.5984-1.392-1.185-2.7907-1.795-4.1758q-1.22-2.77-2.47-5.5222t-2.5316-5.485l-.0045-.009q-2.559-5.4618-5.24-10.8479-1.3413-2.695-2.7119-5.3709c-.1689-.3294-.3451-.6538-.5145-.9827h.0165a409.7032,409.7032,0,0,1-25.7979-59.3456q-4.7826-10.2023-9.2232-20.8473c-5.9413-14.2693-11.0869-28.4419-15.4768-42.3775a447.6325,447.6325,0,0,1-19.0786-53.5658q-1.8407-4.523-3.6433-9.1167a683.9344,683.9344,0,0,1-29.7193-94.4592,316.0285,316.0285,0,0,1,1.4606-185.2228,11.4711,11.4711,0,0,1,1.01-5.3333l4.197-9.2459a248.7947,248.7947,0,0,1,11.2822-24.8544l79.4982-175.1334,3.739-7.54a7.26,7.26,0,0,0,.5758-1.6435,30.7982,30.7982,0,0,0,2.22-5.41,15.18,15.18,0,0,0,2.6394-7.2866,17.1821,17.1821,0,0,0,1.1577-6.1955,17.43,17.43,0,0,0-.1257-2.0274,17.434,17.434,0,0,0,.1257-2.0275,17.7547,17.7547,0,0,0-6.1782-13.3637,8.6682,8.6682,0,0,0-1.2493-1.1645l-10.1636-7.7076c-.0312-.0238-.0651-.0428-.0966-.0661h.1617c-.5406-.3769-1.0736-.7551-1.6129-1.1323l-.011-.0106a12.7112,12.7112,0,0,0-3.01-2.11q-3.7144-2.6127-7.3846-5.2326l-2.5077-1.9592c-.031-.0242-.0642-.0434-.0954-.0671h.1594c-.5325-.3824-1.0574-.7661-1.5885-1.1488l-.0109-.0107a12.5265,12.5265,0,0,0-2.964-2.141q-26.4789-19.186-50.7477-38.6936c-7.2423-4.5651-14.4875-9.5823-21.6656-14.99q-4.305-3.6162-8.5446-7.24c-1.4991-1.0065-2.9984-2.0517-4.4974-3.0986q-4.6983-3.9347-9.1351-7.9491-10.7953-8.0588-21.2921-16.28c-2.53-2.284-5.0147-4.5834-7.4211-6.9047-29.7214-23.6314-57.6953-48.3035-83.8462-73.7164l-12.5622-15.0582-1.1987-1.48a11.8079,11.8079,0,0,0-2.5431-4.2288l-6.4674-6.898-1.7839-2.2027a12.0721,12.0721,0,0,0-2.5368-4.3742l-18.897-20.7631a12.4629,12.4629,0,0,0-1.9274-1.7174,14.9937,14.9937,0,0,0-1.1-1.1585,12.3978,12.3978,0,0,0-2.0205-3.311l-18.2517-21.3591a12.3192,12.3192,0,0,0-1.8616-1.7667c-4.9892-6.2717-14.9294-8.3717-24.4062-4.53a26.8285,26.8285,0,0,0-6.18,3.5294c-.0161-.0063-.0329-.0117-.0491-.018a323.2986,323.2986,0,0,1-51.187,21.29c-3.0818,1.6353-6.2556,3.213-9.5331,4.7069a163.8472,163.8472,0,0,1-30.3089,10.4768c-25.9434,10.0858-57.6659,16.2709-92.0677,16.9131-8.7852.7248-17.73,1.12-26.82,1.12-49.987,0-95.8762-11.3021-131.9046-30.1561q-7.7648-4.7213-15.916-9.2357c-.7905-.5075-1.5845-1.0126-2.3624-1.5281-.0409.0549-.0894.1029-.1312.1571q-3.7689-2.058-7.6075-4.07c-13.207-6.8982-26.38-12.9723-39.3372-18.2218a622.378,622.378,0,0,0-77.9958-35.5041,494.6851,494.6851,0,0,0-57.74-24.5675,216.7652,216.7652,0,0,0-83.3715-16.5315c-.0851,0-.1694.003-.2545.0031s-.1694-.0031-.2545-.0031A216.7652,216.7652,0,0,0,996.124,10.09a494.6851,494.6851,0,0,0-57.74,24.5675,622.378,622.378,0,0,0-77.9958,35.5041c-12.9571,5.2495-26.13,11.3236-39.3372,18.2218q-3.8437,2.0075-7.6075,4.07c-.0418-.0542-.09-.1022-.1312-.1571-.7779.5155-1.5719,1.0206-2.3624,1.5281q-8.1427,4.5116-15.916,9.2357c-36.0284,18.854-81.9176,30.1561-131.9046,30.1561-9.09,0-18.0349-.3954-26.82-1.12-34.4018-.6422-66.1243-6.8273-92.0676-16.9131a163.8455,163.8455,0,0,1-30.309-10.4768c-3.2775-1.4939-6.4514-3.0716-9.5332-4.7069a323.3053,323.3053,0,0,1-51.1869-21.29c-.016.0063-.0331.0117-.0492.018a26.825,26.825,0,0,0-6.18-3.5294c-9.4768-3.842-19.4172-1.742-24.4063,4.53a12.3192,12.3192,0,0,0-1.8616,1.7667l-18.2517,21.3591a12.4009,12.4009,0,0,0-2.02,3.3108,15.0155,15.0155,0,0,0-1.1,1.1587,12.4629,12.4629,0,0,0-1.9274,1.7174L378.519,129.8024a12.0707,12.0707,0,0,0-2.5368,4.3742l-1.7833,2.2021-6.4681,6.8986a11.8067,11.8067,0,0,0-2.543,4.2287l-1.2,1.4814L351.427,164.0443c-26.1511,25.413-54.1249,50.0852-83.8465,73.7167-2.4062,2.3212-4.8912,4.62-7.4206,6.9045q-10.4982,8.219-21.2925,16.2805-4.43,4.0127-9.1352,7.9492c-1.4989,1.0468-2.9981,2.092-4.4973,3.0985q-4.23,3.6243-8.5439,7.24c-7.1784,5.4076-14.4238,10.425-21.6662,14.99q-24.224,19.4871-50.7476,38.6936a12.5235,12.5235,0,0,0-2.9642,2.141l-.0109.0107c-.5311.3827-1.0561.7664-1.5884,1.1488h.1594c-.0311.0237-.0644.0429-.0954.0671l-2.5078,1.9592q-3.6732,2.6194-7.3846,5.2326a12.7107,12.7107,0,0,0-3.01,2.11l-.0112.0106c-.5393.3772-1.0723.7554-1.6128,1.1323h.1619c-.0317.0233-.0655.0423-.0969.0661l-10.1635,7.7076a8.6847,8.6847,0,0,0-1.2494,1.1645,17.7547,17.7547,0,0,0-6.1779,13.3637,17.4341,17.4341,0,0,0,.1255,2.0275,17.43,17.43,0,0,0-.1255,2.0274,17.1821,17.1821,0,0,0,1.1576,6.1955,15.1812,15.1812,0,0,0,2.6392,7.2866,30.8056,30.8056,0,0,0,2.22,5.41,7.27,7.27,0,0,0,.576,1.6435l3.7389,7.54,79.4984,175.1334A248.8173,248.8173,0,0,1,208.8385,601.15l4.197,9.2459a11.4724,11.4724,0,0,1,1.01,5.3333A307.69,307.69,0,0,1,228.66,710.6556a309.1527,309.1527,0,0,1-13.1542,90.2961,683.9741,683.9741,0,0,1-29.7192,94.4592q-1.8018,4.5938-3.6437,9.1167a447.5787,447.5787,0,0,1-19.0785,53.5658c-4.39,13.9356-9.5352,28.1082-15.4766,42.3775q-4.431,10.6422-9.2234,20.8473a409.7029,409.7029,0,0,1-25.7977,59.3456h.0164c-.1694.3289-.3456.6533-.5143.9827q-1.3709,2.6758-2.7121,5.3709-2.68,5.3859-5.24,10.8479l-.0044.009q-1.281,2.7332-2.5315,5.485t-2.4705,5.5222c-.61,1.3851-1.1966,2.7838-1.7949,4.1758-1.7952,4.1758-3.5554,8.3721-5.2451,12.6081A528.24,528.24,0,0,0,54.75,1321.6761q0,4.5875.084,9.1537c.009.534.0229,1.0668.0357,1.6q-.0542,2.6876-.0869,5.3836t-.0328,5.4045q0,17.2467,1.0981,34.0529c-.0058.9837-.0278,1.9626-.0278,2.9479,0,138.855,54.0785,262.5525,138.3461,342.4794a358.6527,358.6527,0,0,0,53.5961,49.5956q12.8013,10.8874,26.7072,20.6818,1.9232,1.5954,3.8884,3.1748c.4017.323.8135.6419,1.2177.9638.9129.7267,1.8236,1.4542,2.75,2.1757.5613.4375,1.1347.87,1.7008,1.3051.7835.6028,1.5618,1.2073,2.3545,1.8062.6192.468,1.2511.9306,1.8759,1.3962.7507.56,1.4956,1.1214,2.2544,1.6775.7415.5435,1.4966,1.0814,2.2458,1.6218.6557.4728,1.3046.9486,1.966,1.4192.7594.54,1.5322,1.0745,2.2992,1.6114.6664.4664,1.326.9357,1.9981,1.4.0679.0469.1374.0931.2054.14.9154.7,1.8189,1.4138,2.7415,2.1055q1.8576,1.6411,3.7557,3.266c.388.3321.7857.66,1.1761.9913.8817.7476,1.7614,1.4961,2.6558,2.2382.542.45,1.0959.8949,1.6426,1.3426.7568.62,1.5085,1.242,2.2741,1.858.5981.4815,1.2084.9574,1.8119,1.4363.7251.5756,1.4445,1.1536,2.1774,1.7257.7162.5591,1.4455,1.1125,2.1692,1.6684.6332.4864,1.26.9758,1.8988,1.46.7335.5556,1.48,1.1054,2.2207,1.6576.6436.48,1.2807.9627,1.93,1.44.78.5734,1.573,1.1411,2.361,1.7109.62.4482,1.2332.9,1.8578,1.3457.8552.6106,1.7236,1.2148,2.5878,1.821.57.4,1.1344.8035,1.7089,1.2018.9032.6262,1.82,1.246,2.7325,1.8676.5473.3727,1.0881.7484,1.6389,1.1194.9349.63,1.8825,1.2524,2.8273,1.877.5409.3576,1.0754.7184,1.62,1.0744.9707.6352,1.9544,1.2637,2.9354,1.8935.5285.3394,1.051.6818,1.5826,1.02,1.0069.64,2.0266,1.2734,3.0441,1.9077.5167.3223,1.0274.6477,1.5467.9685,1.0718.6621,2.1562,1.317,3.2393,1.9731.4735.2865.9412.5764,1.4169.8619,1.1243.6748,2.2611,1.3429,3.3976,2.0111.4458.2622.8861.5272,1.3338.7885,1.1619.6778,2.3363,1.3486,3.5107,2.0195.4312.2461.8571.4957,1.29.7411,1.2066.6839,2.4255,1.3609,3.6449,2.0377.4092.2272.8131.457,1.2237.683,1.2624.6955,2.5368,1.3839,3.8126,2.0715.375.2022.7452.4069,1.1212.6083,1.3045.6985,2.6211,1.39,3.94,2.08.3561.1862.7078.3757,1.0651.5615q2.033,1.0578,4.092,2.1c.3264.1658.6485.3342.9757.4995q2.0733,1.0486,4.1724,2.0806c.3234.1594.6429.3219.9671.4812q2.1369,1.05,4.3,2.0829c.3.1441.5972.29.8984.4342q2.2122,1.0557,4.4509,2.0942c.2712.1262.5391.2549.8108.3807q2.296,1.0647,4.6191,2.1112c.2356.1065.4684.2146.7044.3211q2.3583,1.0617,4.7434,2.105c.2162.0949.43.1916.6461.2861q2.4286,1.0617,4.8841,2.104c.1888.0805.3752.1626.5642.2427q2.5113,1.0656,5.05,2.1117c.1529.0633.3039.1275.4569.19q2.5489,1.05,5.125,2.08c.1509.06.3.1221.451.1824q2.6433,1.0561,5.3142,2.0913c.1028.04.2044.0808.3073.1207q2.6861,1.041,5.3995,2.06c.0981.0368.1951.0749.2933.1115q2.7629,1.038,5.5533,2.054c.0627.0229.1245.0461.1872.0692q2.7977,1.0186,5.6228,2.0148c.062.0219.1231.0444.185.066q2.8654,1.0107,5.7582,1.9982c.0324.011.0643.0222.0966.0334q2.9241.9982,5.8755,1.9732l.0374.0127q2.9584.9769,5.9439,1.9306l.0288.0094c60.0035,19.169,128.0793,31.1823,200.6226,34.0009h.0009v1.4436c27.828,1.3452,52.9661,4.3431,73.278,8.5329q6.7794.8262,13.6239,1.9153a336.5994,336.5994,0,0,1,92.8223,28.7442c37.2216,13.9182,69.9468,31.1867,96.448,50.5029q4.8507,3.1344,9.6889,6.4392,13.0872,8.96,25.0566,18.5073c40.73,27.9551,74.4974,59.3112,98.4959,89.9387.0264-.0336.0548-.0676.0813-.1013.0265.0337.0549.0677.0813.1013,23.9985-30.6275,57.7655-61.9836,98.4959-89.9387q11.9546-9.5186,25.0566-18.5073,4.8361-3.3111,9.6889-6.4392c26.5012-19.3162,59.2264-36.5847,96.448-50.5029a336.5994,336.5994,0,0,1,92.8223-28.7442q6.8453-1.1014,13.6239-1.9153c20.3119-4.19,45.45-7.1877,73.278-8.5329v-1.4436h.0009c72.5433-2.8186,140.6191-14.8319,200.6226-34.0009l.0288-.0094q2.985-.9532,5.9439-1.9306l.0374-.0127q2.9511-.9753,5.8754-1.9732l.0967-.0334q2.8923-.9882,5.7582-1.9982c.0619-.0216.123-.0441.185-.066q2.8241-.9969,5.6227-2.0148c.0629-.0231.1246-.0463.1874-.0692q2.79-1.0167,5.5531-2.054c.0982-.0366.1953-.0747.2934-.1115q2.7122-1.0207,5.3995-2.06c.1027-.04.2045-.0809.3073-.1207q2.67-1.036,5.3142-2.0913c.1509-.06.3-.1221.451-.1824q2.574-1.0312,5.125-2.08c.153-.063.304-.1272.4569-.19q2.5367-1.0475,5.05-2.1117c.1891-.08.3754-.1622.5641-.2427q2.4532-1.044,4.8843-2.104c.2163-.0945.43-.1912.646-.2861q2.3821-1.045,4.7434-2.105c.2361-.1065.4687-.2146.7043-.3211q2.32-1.0488,4.6192-2.1112c.2717-.1258.54-.2545.8108-.3807q2.235-1.04,4.4509-2.0942c.3013-.1438.5979-.29.8984-.4342q2.1592-1.0358,4.3-2.0829c.3242-.1593.6436-.3218.9671-.4812q2.0947-1.035,4.1723-2.0806c.3272-.1653.6494-.3337.9756-.4995q2.0547-1.0448,4.0921-2.1c.3571-.1858.7089-.3753,1.0651-.5615q1.9776-1.0353,3.9395-2.08c.376-.2014.7462-.4061,1.1211-.6083,1.2759-.6876,2.55-1.376,3.8127-2.0715.41-.226.8146-.4558,1.2237-.683,1.2193-.6768,2.4383-1.3538,3.6447-2.0377.4331-.2454.8591-.495,1.29-.7411,1.1743-.6709,2.3487-1.3417,3.5105-2.0195.4478-.2613.8881-.5263,1.334-.7885,1.1362-.6682,2.2732-1.3363,3.3975-2.0111.4757-.2855.9434-.5754,1.417-.8619,1.083-.6561,2.1674-1.311,3.2391-1.9731.5194-.3208,1.03-.6462,1.547-.9685,1.0174-.6343,2.0369-1.2678,3.0439-1.9077.5315-.338,1.0542-.68,1.5827-1.02.9809-.63,1.9645-1.2583,2.9354-1.8935.544-.356,1.0786-.7168,1.6194-1.0744.9447-.6246,1.8926-1.2474,2.8274-1.877.5508-.371,1.0915-.7467,1.6389-1.1194.9128-.6216,1.8291-1.2414,2.7324-1.8676.5745-.3983,1.1384-.8016,1.7089-1.2018.8644-.6062,1.7325-1.21,2.5878-1.821.6247-.446,1.238-.8975,1.8579-1.3457.7878-.57,1.5808-1.1375,2.3608-1.7109.6492-.4773,1.2864-.96,1.93-1.44.7408-.5522,1.4872-1.102,2.2206-1.6576.6391-.4841,1.2658-.9735,1.8991-1.46.7235-.5559,1.4527-1.1093,2.1689-1.6684.733-.5721,1.4524-1.15,2.1775-1.7257.6035-.4789,1.2139-.9548,1.8119-1.4363.7656-.616,1.5173-1.2379,2.274-1.858.5469-.4477,1.1006-.8926,1.6426-1.3426.8945-.7421,1.7742-1.4906,2.656-2.2382.39-.3311.7881-.6592,1.176-.9913q1.8981-1.6249,3.7557-3.266c.9228-.6919,1.8264-1.4057,2.742-2.1059.0679-.0466.1371-.0926.2049-.1394.6721-.464,1.3319-.9333,1.9981-1.4.7669-.5369,1.54-1.0713,2.2991-1.6114.6616-.4706,1.3105-.9464,1.9662-1.4192.7491-.54,1.5041-1.0783,2.2457-1.6218.7588-.5561,1.5037-1.118,2.2544-1.6775.6248-.4656,1.2568-.9282,1.876-1.3962.7927-.5989,1.5709-1.2034,2.3545-1.8062.5661-.4353,1.1394-.8676,1.7005-1.3051.9262-.7215,1.837-1.449,2.75-2.1757.4043-.3219.8159-.6408,1.2177-.9638q1.9651-1.5794,3.8883-3.1748,13.8936-9.7791,26.7075-20.6818a358.6658,358.6658,0,0,0,53.5959-49.5956c84.2676-79.9269,138.346-203.6244,138.346-342.4794,0-.9853-.022-1.9642-.0277-2.9479q1.082-16.7957,1.098-34.0529Q2104.75,1340.5092,2104.7172,1337.8132Z" transform="translate(-54.75 6.4417)"/><path id="Borde_Blanco" data-name="Borde Blanco" class="cls-2" d="M2069.7183,1337.8132q-.03-2.6964-.0839-5.3836c.0123-.533.0258-1.0658.0345-1.6q.0744-4.568.0811-9.1537a544.6549,544.6549,0,0,0-36.0464-196.0107c-1.6319-4.236-3.332-8.4323-5.0658-12.6081-.578-1.392-1.1446-2.7907-1.7337-4.1758q-1.1781-2.77-2.386-5.5222t-2.4452-5.485l-.0043-.009q-2.4719-5.4618-5.0609-10.8479-1.2956-2.695-2.6194-5.3709c-.163-.3294-.3332-.6538-.4967-.9827h.0159a417.36,417.36,0,0,1-24.917-59.3456q-4.6194-10.2023-8.9083-20.8473c-5.7384-14.2693-10.7084-28.4419-14.9483-42.3775a458.1847,458.1847,0,0,1-18.4271-53.5658q-1.7779-4.523-3.5191-9.1167a701.6951,701.6951,0,0,1-28.7043-94.4592,326.7178,326.7178,0,0,1,1.4106-185.2228,11.8278,11.8278,0,0,1,.9754-5.3333l4.0537-9.2459a253.1606,253.1606,0,0,1,10.897-24.8544l76.7837-175.1334,3.6113-7.54a7.4323,7.4323,0,0,0,.5561-1.6435,31.4169,31.4169,0,0,0,2.1447-5.41,15.5182,15.5182,0,0,0,2.5492-7.2866,17.7208,17.7208,0,0,0,1.1182-6.1955,18.0471,18.0471,0,0,0-.1214-2.0274,17.8348,17.8348,0,0,0-5.8458-15.3912,8.4923,8.4923,0,0,0-1.2067-1.1645l-9.8164-7.7076c-.03-.0238-.063-.0428-.0935-.0661h.1563c-.5221-.3769-1.0369-.7551-1.5579-1.1323l-.0106-.0106a12.2867,12.2867,0,0,0-2.9069-2.11q-3.5877-2.6127-7.1325-5.2326l-2.4222-1.9592c-.03-.0242-.062-.0434-.0921-.0671h.1539c-.5142-.3824-1.0212-.7661-1.5342-1.1488l-.01-.0107a12.12,12.12,0,0,0-2.8628-2.141q-25.5747-19.186-49.0149-38.6936c-7.8418-5.1177-15.692-10.7736-23.4445-16.9479-6.66-5.3042-12.9707-10.7683-18.9012-16.3295A1108.7425,1108.7425,0,0,1,1787.3574,169.2l-16.287-20.2132-1.1578-1.48a11.8981,11.8981,0,0,0-2.4563-4.2288l-6.2466-6.898-1.7229-2.2027a12.1788,12.1788,0,0,0-2.45-4.3742l-18.2517-20.7631a12.183,12.183,0,0,0-1.8616-1.7174c-4.9892-6.0967-14.9294-8.1381-24.4062-4.4033a27.0353,27.0353,0,0,0-6.18,3.4309c-.0161-.0061-.0329-.0114-.0491-.0175a328.5016,328.5016,0,0,1-51.187,20.6963c-3.0818,1.59-6.2556,3.1233-9.5331,4.5755a167.0677,167.0677,0,0,1-30.3089,10.1845c-25.9434,9.8044-57.6659,15.8168-92.0677,16.441-8.7852.7046-17.73,1.089-26.82,1.089-49.987,0-95.8762-10.9867-131.9046-29.3146q-7.7648-4.5894-15.916-8.9779c-.7905-.4933-1.5845-.9844-2.3624-1.4855-.0409.0534-.0894.1-.1312.1528q-3.7689-2.0007-7.6075-3.9562c-13.207-6.7056-26.38-12.61-39.3372-17.7132A631.1947,631.1947,0,0,0,1221.1163,63.51a502.4849,502.4849,0,0,0-57.74-23.8819,222.1766,222.1766,0,0,0-83.3715-16.07c-.0851,0-.1694.0029-.2545.003s-.1694-.003-.2545-.003a222.1766,222.1766,0,0,0-83.3715,16.07,502.4849,502.4849,0,0,0-57.74,23.8819,631.1947,631.1947,0,0,0-77.9958,34.5134c-12.9571,5.103-26.13,11.0076-39.3372,17.7132q-3.8437,1.9515-7.6075,3.9562c-.0418-.0527-.09-.0994-.1312-.1528-.7779.5011-1.5719.9922-2.3624,1.4855q-8.1427,4.3857-15.916,8.9779c-36.0284,18.3279-81.9176,29.3146-131.9046,29.3146-9.09,0-18.0349-.3844-26.82-1.089-34.4018-.6242-66.1243-6.6366-92.0676-16.441a167.066,167.066,0,0,1-30.309-10.1845c-3.2775-1.4522-6.4514-2.9859-9.5332-4.5755a328.5084,328.5084,0,0,1-51.1869-20.6963c-.016.0061-.0331.0114-.0492.0175a27.0317,27.0317,0,0,0-6.18-3.4309c-9.4768-3.7348-19.4172-1.6934-24.4063,4.4033a12.183,12.183,0,0,0-1.8616,1.7174l-18.2517,20.7631a12.18,12.18,0,0,0-2.45,4.3742l-1.7224,2.2021-6.2472,6.8986a11.895,11.895,0,0,0-2.4561,4.2287l-1.1587,1.4814L372.1427,169.2A1108.7336,1108.7336,0,0,1,267.5805,260.946c-5.93,5.5612-12.241,11.0253-18.9011,16.3295-7.7525,6.1743-15.6027,11.83-23.4445,16.9479Q201.8381,313.7105,176.22,332.917a12.12,12.12,0,0,0-2.8629,2.141l-.0106.0107c-.5129.3827-1.02.7664-1.5341,1.1488h.1539c-.03.0237-.0622.0429-.0921.0671l-2.4222,1.9592q-3.5477,2.6194-7.1325,5.2326a12.2842,12.2842,0,0,0-2.9068,2.11l-.0108.0106c-.5209.3772-1.0357.7554-1.5578,1.1323h.1563c-.03.0233-.0632.0423-.0935.0661l-9.8164,7.7076a8.503,8.503,0,0,0-1.2067,1.1645,17.8367,17.8367,0,0,0-5.8458,15.3912,18.0472,18.0472,0,0,0-.1213,2.0274,17.7207,17.7207,0,0,0,1.1181,6.1955,15.5192,15.5192,0,0,0,2.5491,7.2866,31.4329,31.4329,0,0,0,2.1446,5.41,7.4333,7.4333,0,0,0,.5564,1.6435l3.6111,7.54L227.68,576.2953a253.1606,253.1606,0,0,1,10.897,24.8544l4.0537,9.2459a11.8265,11.8265,0,0,1,.9754,5.3333,317.6841,317.6841,0,0,1,14.1158,94.9267,319.2863,319.2863,0,0,1-12.7051,90.2961,701.7385,701.7385,0,0,1-28.7043,94.4592q-1.74,4.5938-3.5193,9.1167a458.1647,458.1647,0,0,1-18.427,53.5658c-4.24,13.9356-9.21,28.1082-14.9482,42.3775q-4.28,10.6422-8.9084,20.8473a417.3834,417.3834,0,0,1-24.9168,59.3456h.0158c-.1636.3289-.3338.6533-.4968.9827q-1.3239,2.6758-2.6194,5.3709-2.5883,5.3859-5.061,10.8479l-.0042.009q-1.2372,2.7332-2.445,5.485t-2.3862,5.5222c-.589,1.3851-1.1557,2.7838-1.7336,4.1758-1.7339,4.1758-3.434,8.3721-5.066,12.6081A544.6592,544.6592,0,0,0,89.75,1321.6761q0,4.5875.0812,9.1537c.0086.534.022,1.0668.0344,1.6q-.0524,2.6876-.0839,5.3836t-.0317,5.4045q0,17.2467,1.0605,34.0529c-.0055.9837-.0268,1.9626-.0268,2.9479,0,138.855,52.232,262.5525,133.6221,342.4794a351.3881,351.3881,0,0,0,51.766,49.5956q12.3642,10.8874,25.7952,20.6818,1.8576,1.5954,3.7557,3.1748c.388.323.7857.6419,1.1761.9638.8817.7267,1.7614,1.4542,2.6558,2.1757.542.4375,1.0959.87,1.6426,1.3051.7568.6028,1.5085,1.2073,2.2741,1.8062.5981.468,1.2084.9306,1.8119,1.3962.7251.56,1.4445,1.1214,2.1774,1.6775.7162.5435,1.4455,1.0814,2.1692,1.6218.6332.4728,1.26.9486,1.8988,1.4192.7335.54,1.48,1.0745,2.2207,1.6114.6436.4664,1.2807.9357,1.93,1.4.78.5575,1.573,1.1093,2.361,1.6632.62.4358,1.2332.8746,1.8578,1.3081.8552.5936,1.7236,1.1811,2.5878,1.77.57.389,1.1344.781,1.7089,1.1682.9032.6088,1.82,1.2112,2.7325,1.8155.5473.3623,1.0881.7275,1.6389,1.0881.9349.612,1.8825,1.2175,2.8273,1.8247.5409.3477,1.0754.6984,1.62,1.0444.9707.6175,1.9544,1.2283,2.9354,1.8406.5285.33,1.051.6628,1.5826.9913,1.0069.6221,2.0266,1.238,3.0441,1.8547.5167.3132,1.0274.63,1.5467.9414,1.0718.6435,2.1562,1.28,3.2393,1.9179.4735.2786.9412.56,1.4169.8379,1.1243.656,2.2611,1.3054,3.3976,1.955.4458.2549.8861.5125,1.3338.7665,1.1619.6589,2.3363,1.311,3.5107,1.9631.4312.2392.8571.4819,1.29.72,1.2066.6648,2.4255,1.323,3.6449,1.9809.4092.2208.8131.4442,1.2237.6639,1.2624.6762,2.5368,1.3454,3.8126,2.0137.375.1965.7452.3955,1.1212.5913,1.3045.6791,2.6211,1.3511,3.94,2.022.3561.1811.7078.3652,1.0651.5459q2.033,1.0282,4.092,2.041c.3264.1612.6485.3249.9757.4856q2.0733,1.0194,4.1724,2.0224c.3234.1551.6429.313.9671.4678q2.1369,1.02,4.3,2.0248c.3.14.5972.2823.8984.4221q2.2122,1.0263,4.4509,2.0358c.2712.1228.5391.2478.8108.37q2.296,1.0348,4.6191,2.0522c.2356.1036.4684.2088.7044.3122q2.3583,1.032,4.7434,2.0462c.2162.0923.43.1863.6461.2781q2.4286,1.032,4.8841,2.0454c.1888.0782.3752.158.5642.2359q2.5113,1.0359,5.05,2.0527c.1529.0615.3039.124.4569.1853q2.5489,1.0206,5.125,2.0215c.1509.0586.3.1186.451.1772q2.6433,1.0269,5.3142,2.0331c.1028.0387.2044.0785.3073.1173q2.6861,1.0119,5.3995,2.003c.0981.0357.1951.0727.2933.1084q2.7629,1.009,5.5533,1.9965l.1872.0674q2.7977.99,5.6228,1.9585c.062.0214.1231.0432.185.0642q2.8654.9826,5.7582,1.9424l.0966.0326q2.9241.97,5.8755,1.9181l.0374.0122q2.9584.95,5.9439,1.877l.0288.009c60.0035,18.634,128.0793,30.3121,200.6226,33.052h.0009v1.4033c27.828,1.3076,52.9661,4.2219,73.278,8.2949q6.7794.8031,13.6239,1.8617a343.6605,343.6605,0,0,1,92.8223,27.942c37.2216,13.53,69.9468,30.3165,96.448,49.0936q4.8507,3.0469,9.6889,6.2595,13.0872,8.71,25.0566,17.9908c40.73,27.1749,74.4974,57.656,98.4959,87.4288.0264-.0327.0548-.0657.0813-.0983.0265.0326.0549.0656.0813.0983,23.9985-29.7728,57.7655-60.2539,98.4959-87.4288q11.9546-9.2529,25.0566-17.9908,4.8361-3.2187,9.6889-6.2595c26.5012-18.7771,59.2264-35.5638,96.448-49.0936a343.6605,343.6605,0,0,1,92.8223-27.942q6.8453-1.0706,13.6239-1.8617c20.3119-4.073,45.45-6.9873,73.278-8.2949v-1.4033h.0009c72.5433-2.74,140.6191-14.418,200.6226-33.052l.0288-.009q2.985-.927,5.9439-1.877l.0374-.0122q2.9511-.9481,5.8754-1.9181l.0967-.0326q2.8923-.9606,5.7582-1.9424c.0619-.021.123-.0428.185-.0642q2.8241-.969,5.6227-1.9585c.0629-.0224.1246-.0449.1874-.0674q2.79-.9882,5.5531-1.9965c.0982-.0357.1953-.0727.2934-.1084q2.7122-.9921,5.3995-2.003c.1027-.0388.2045-.0786.3073-.1173q2.67-1.0072,5.3142-2.0331c.1509-.0586.3-.1186.451-.1772q2.574-1.0023,5.125-2.0215c.153-.0613.304-.1238.4569-.1853q2.5367-1.0181,5.05-2.0527c.1891-.0779.3754-.1577.5641-.2359q2.4532-1.0149,4.8843-2.0454c.2163-.0918.43-.1858.646-.2781q2.3821-1.0158,4.7434-2.0462c.2361-.1034.4687-.2086.7043-.3122q2.32-1.0194,4.6192-2.0522c.2717-.1223.54-.2473.8108-.37q2.235-1.0114,4.4509-2.0358c.3013-.14.5979-.282.8984-.4221q2.1592-1.0066,4.3-2.0248c.3242-.1548.6436-.3127.9671-.4678q2.0947-1.0059,4.1723-2.0224c.3272-.1607.6494-.3244.9756-.4856q2.0547-1.0155,4.0921-2.041c.3571-.1807.7089-.3648,1.0651-.5459,1.3184-.6709,2.6349-1.3429,3.9395-2.022.376-.1958.7462-.3948,1.1211-.5913,1.2759-.6683,2.55-1.3375,3.8127-2.0137.41-.22.8146-.4431,1.2237-.6639,1.2193-.6579,2.4383-1.3161,3.6447-1.9809.4331-.2385.8591-.4812,1.29-.72,1.1743-.6521,2.3487-1.3042,3.5105-1.9631.4478-.254.8881-.5116,1.334-.7665,1.1362-.65,2.2732-1.299,3.3975-1.955.4757-.2776.9434-.5593,1.417-.8379,1.083-.6377,2.1674-1.2744,3.2391-1.9179.5194-.3118,1.03-.6282,1.547-.9414,1.0174-.6167,2.0369-1.2326,3.0439-1.8547.5315-.3285,1.0542-.6613,1.5827-.9913.9809-.6123,1.9645-1.2231,2.9354-1.8406.544-.346,1.0786-.6967,1.6194-1.0444.9447-.6072,1.8926-1.2127,2.8274-1.8247.5508-.3606,1.0915-.7258,1.6389-1.0881.9128-.6043,1.8291-1.2067,2.7324-1.8155.5745-.3872,1.1384-.7792,1.7089-1.1682.8644-.5892,1.7325-1.1767,2.5878-1.77.6247-.4335,1.238-.8723,1.8579-1.3081.7878-.5539,1.5808-1.1057,2.3608-1.6632.6492-.464,1.2864-.9333,1.93-1.4.7408-.5369,1.4872-1.0713,2.2206-1.6114.6391-.4706,1.2658-.9464,1.8991-1.4192.7235-.54,1.4527-1.0783,2.1689-1.6218.733-.5561,1.4524-1.118,2.1775-1.6775.6035-.4656,1.2139-.9282,1.8119-1.3962.7656-.5989,1.5173-1.2034,2.274-1.8062.5469-.4353,1.1006-.8676,1.6426-1.3051.8945-.7215,1.7742-1.449,2.656-2.1757.39-.3219.7881-.6408,1.176-.9638q1.8981-1.5794,3.7557-3.1748,13.419-9.7791,25.7954-20.6818a351.3915,351.3915,0,0,0,51.7658-49.5956c81.39-79.9269,133.6221-203.6244,133.6221-342.4794,0-.9853-.0212-1.9642-.0268-2.9479q1.0451-16.7957,1.0605-34.0529Q2069.75,1340.5092,2069.7183,1337.8132Z" transform="translate(-54.75 6.4417)"/><path id="Fonfo_verde" data-name="Fonfo verde" class="cls-1" d="M2037.4694,1334.1687q-.0294-2.66-.0812-5.3107c.0119-.5258.0249-1.0514.0333-1.5782q.072-4.506.0785-9.03a546.6524,546.6524,0,0,0-34.8721-193.3575c-1.5788-4.1788-3.2236-8.3182-4.9008-12.4375-.5591-1.3732-1.1075-2.7529-1.6773-4.1193q-1.14-2.7327-2.3083-5.4474t-2.3655-5.4108l-.0041-.0089q-2.3915-5.3878-4.8961-10.701-1.2531-2.6586-2.534-5.2982c-.1576-.3249-.3224-.6449-.4806-.9694h.0154a416.1833,416.1833,0,0,1-24.1053-58.5424q-4.4688-10.0641-8.6181-20.5651c-5.5515-14.0762-10.36-28.0569-14.4613-41.8038a458.0814,458.0814,0,0,1-17.8268-52.8408q-1.72-4.4617-3.4046-8.9933a702.419,702.419,0,0,1-27.7692-93.1807,328.38,328.38,0,0,1,1.3647-182.7157,11.8675,11.8675,0,0,1,.9436-5.2611l3.9216-9.1207a252.3375,252.3375,0,0,1,10.542-24.518l74.2825-172.7629,3.4937-7.4377a7.4358,7.4358,0,0,0,.538-1.6213,31.3468,31.3468,0,0,0,2.0747-5.3369,15.501,15.501,0,0,0,2.4662-7.1879A17.7845,17.7845,0,0,0,1988,382.5a18.1641,18.1641,0,0,0-.1173-2,18.1641,18.1641,0,0,0,.1173-2,17.9308,17.9308,0,0,0-5.7727-13.1828,8.3012,8.3012,0,0,0-1.1674-1.1487l-9.4967-7.6033c-.0293-.0235-.0609-.0422-.09-.0652h.1512c-.5051-.3718-1.0032-.7449-1.5071-1.117l-.01-.01a11.8938,11.8938,0,0,0-2.8122-2.0818q-25.1221-18.6546-48.1477-37.6219c-7.703-4.976-15.4143-10.4753-23.03-16.4786-6.5422-5.1573-12.7412-10.47-18.5666-15.8771a1085.0079,1085.0079,0,0,1-104.8187-91.2785l-25.2709-31.98a11.8112,11.8112,0,0,0-2.4069-4.253l-17.9288-20.1881a11.9222,11.9222,0,0,0-1.8286-1.67c-4.9009-5.9278-14.6653-7.9128-23.9745-4.2813a26.6319,26.6319,0,0,0-6.0707,3.3358l-.0483-.017a324.6058,324.6058,0,0,1-50.2813,20.123c-3.0273,1.5457-6.145,3.0369-9.3645,4.4488a165.28,165.28,0,0,1-29.7727,9.9025c-25.4844,9.5328-56.6457,15.3788-90.4388,15.9857-8.63.6851-17.416,1.0588-26.3456,1.0588-49.1025,0-94.18-10.6824-129.5709-28.5027q-7.6273-4.4622-15.6344-8.7293c-.7765-.48-1.5565-.957-2.3206-1.4443-.04.0519-.0878.0973-.1289.1485q-3.7022-1.9452-7.4728-3.8466c-12.9734-6.52-25.9135-12.2609-38.6413-17.2226a623.2925,623.2925,0,0,0-76.6159-33.5575,496.45,496.45,0,0,0-56.7188-23.22A220.2072,220.2072,0,0,0,1080,52.5c-.0836,0-.1664.0028-.25.0029s-.1664-.0029-.25-.0029a220.2072,220.2072,0,0,0-81.8964,15.625,496.45,496.45,0,0,0-56.7188,23.2205,623.2925,623.2925,0,0,0-76.6159,33.5575c-12.7278,4.9617-25.6679,10.7027-38.6413,17.2226q-3.7757,1.8975-7.4728,3.8466c-.0411-.0512-.0887-.0966-.1289-.1485-.7641.4873-1.5441.9647-2.3206,1.4443q-7.9987,4.2642-15.6344,8.7293C764.68,173.8176,719.6025,184.5,670.5,184.5c-8.93,0-17.7159-.3737-26.3456-1.0588-33.7931-.6069-64.9544-6.4529-90.4388-15.9857a165.28,165.28,0,0,1-29.7727-9.9025c-3.22-1.4119-6.3372-2.9031-9.3645-4.4488a324.6018,324.6018,0,0,1-50.2813-20.123l-.0483.017a26.6319,26.6319,0,0,0-6.0707-3.3358c-9.3091-3.6315-19.0737-1.6465-23.9745,4.2813a11.9182,11.9182,0,0,0-1.8287,1.67l-17.9287,20.1881a11.808,11.808,0,0,0-2.4068,4.253l-25.271,31.98A1084.9973,1084.9973,0,0,1,281.95,283.3132c-5.8253,5.4071-12.0244,10.72-18.5666,15.8771-7.6154,6.0033-15.3267,11.5026-23.03,16.4786q-22.983,18.9474-48.1477,37.6219a11.8938,11.8938,0,0,0-2.8122,2.0818l-.01.01c-.5039.3721-1.002.7452-1.507,1.117h.1512c-.0295.023-.0611.0417-.09.0652l-9.4966,7.6033a8.3073,8.3073,0,0,0-1.1675,1.1487A17.9311,17.9311,0,0,0,171.5,378.5a18.1641,18.1641,0,0,0,.1173,2,18.1641,18.1641,0,0,0-.1173,2,17.7845,17.7845,0,0,0,1.0817,6.1117,15.502,15.502,0,0,0,2.4661,7.1879,31.3551,31.3551,0,0,0,2.0747,5.3369,7.4312,7.4312,0,0,0,.5382,1.6213l3.4935,7.4377,74.2826,172.7629a252.3129,252.3129,0,0,1,10.542,24.518l3.9216,9.1207a11.87,11.87,0,0,1,.9437,5.2611A319.0836,319.0836,0,0,1,284.5,715.5a320.74,320.74,0,0,1-12.2912,89.0739A702.4353,702.4353,0,0,1,244.44,897.7546q-1.6836,4.5315-3.4046,8.9933a458.0814,458.0814,0,0,1-17.8268,52.8408c-4.1017,13.7469-8.91,27.7276-14.4612,41.8038q-4.14,10.4981-8.6182,20.5651A416.1952,416.1952,0,0,1,176.0235,1080.5h.0154c-.1583.3245-.323.6445-.4807.9694q-1.2809,2.64-2.534,5.2982-2.504,5.3129-4.8961,10.701l-.0041.0089q-1.197,2.6963-2.3655,5.4108t-2.3083,5.4474c-.57,1.3664-1.1181,2.7461-1.6772,4.1193-1.6774,4.1193-3.3221,8.2587-4.9009,12.4375A546.6524,546.6524,0,0,0,122,1318.25q0,4.5254.0785,9.03c.0084.5268.0214,1.0524.0333,1.5782q-.0506,2.6511-.0812,5.3107T122,1339.5q0,17.0133,1.026,33.592c-.0054.97-.026,1.9361-.026,2.908,0,136.9756,50.53,258.9988,129.2693,337.8438a345.0234,345.0234,0,0,0,63.4585,59.0686q1.8246,1.5512,3.6892,3.0869c.3811.3139.7718.624,1.1553.937.8661.7065,1.73,1.4139,2.6088,2.1155.5325.4253,1.0765.8457,1.6136,1.269.7433.5859,1.4818,1.1738,2.2339,1.7561.5874.455,1.187.9048,1.78,1.3575.7123.544,1.4191,1.09,2.1389,1.631.7036.5285,1.42,1.0515,2.1308,1.5769.6221.46,1.2377.9224,1.8653,1.38.72.5252,1.4537,1.0447,2.1813,1.5668.6323.4535,1.2582.91,1.8958,1.361.7662.5421,1.5452,1.0786,2.3191,1.6171.6089.4237,1.2114.85,1.8251,1.2719.84.577,1.6929,1.1483,2.5419,1.7213.56.3782,1.1144.7593,1.6786,1.1357.8873.592,1.7874,1.1778,2.6842,1.7652.5376.3523,1.0689.7075,1.61,1.0581.9182.595,1.8492,1.1838,2.7772,1.7742.5314.338,1.0564.6789,1.5909,1.0153.9535.6,1.92,1.1944,2.8834,1.79.5192.3208,1.0325.6445,1.5546.9639.9891.6048,1.9907,1.2037,2.99,1.8033.5076.3046,1.0093.6121,1.5195.9153,1.0527.6257,2.1179,1.2449,3.1819,1.8648.4652.2709.9245.5449,1.3918.8148,1.1044.6378,2.2212,1.2691,3.3375,1.9007.4379.2478.87.4984,1.31.7453,1.1413.6406,2.2949,1.2746,3.4485,1.9088.4236.2326.842.4685,1.2672.7,1.1853.6465,2.3826,1.2864,3.5805,1.926.4018.2146.7987.4319,1.2019.6456,1.24.6574,2.492,1.3081,3.7453,1.958.3682.1909.7319.3845,1.1013.5748,1.2814.66,2.5747,1.3136,3.87,1.9661.35.1761.6954.3551,1.0463.5306q1.9969,1,4.02,1.9845c.3206.1569.6371.316.9584.4723q2.0365.9909,4.0987,1.9663c.3176.1509.6314.3043.95.4548q2.0991.9923,4.2241,1.9688c.2951.1362.5867.2745.8825.41q2.1732.9979,4.3722,1.9795c.2664.1194.53.2408.7965.36q2.2554,1.0062,4.5373,1.9953c.2315.1007.46.2031.692.3036q2.3164,1.0034,4.6595,1.99c.2123.09.422.1811.6346.27q2.3856,1.0034,4.7977,1.9887c.1855.076.3686.1535.5542.2293q2.4669,1.0074,4.9607,1.9958c.15.06.2985.1206.4488.18q2.5038.9924,5.0344,1.9655c.1482.0571.2946.1154.443.1725q2.5965.9982,5.22,1.9766c.101.0378.2008.0763.3019.1142q2.6385.9836,5.3039,1.9474c.0964.0347.1917.0706.2882.1054q2.7138.9811,5.455,1.9413c.0616.0217.1223.0437.1839.0654q2.7483.9628,5.5233,1.9043c.0609.0208.121.042.1818.0625q2.8146.9552,5.6563,1.8885l.0949.0317q2.8723.9433,5.7715,1.865l.0368.0118q2.9061.9238,5.8387,1.8251l.0283.0088c58.9419,18.1179,125.8133,29.4725,197.0731,32.1365H677.5v1.3644c27.3357,1.2715,52.029,4.105,71.9816,8.0652q6.6594.7807,13.3828,1.81a340.1469,340.1469,0,0,1,91.18,27.1683c36.563,13.1549,68.7092,29.4766,94.7416,47.7337q4.7649,2.9626,9.5175,6.0862,12.8556,8.4687,24.6133,17.4926c40.01,26.4222,73.1793,56.0592,96.7533,85.0074.0259-.0319.0538-.064.08-.0957.026.0317.0539.0638.08.0957,23.574-28.9482,56.7436-58.5852,96.7533-85.0074q11.7431-8.9966,24.6133-17.4926,4.7506-3.1294,9.5175-6.0862c26.0324-18.2571,58.1786-34.5788,94.7416-47.7337a340.1469,340.1469,0,0,1,91.18-27.1683q6.7241-1.0409,13.3828-1.81c19.9526-3.96,44.6459-6.7937,71.9816-8.0652v-1.3644h.0009c71.26-2.664,138.1312-14.0186,197.0731-32.1365l.0283-.0088q2.9322-.9014,5.8386-1.8251l.0369-.0118q2.8989-.9218,5.7715-1.865l.0949-.0317q2.8411-.9339,5.6563-1.8885c.0608-.0205.1208-.0417.1818-.0625q2.7741-.9422,5.5233-1.9043c.0616-.0217.1223-.0437.1839-.0654q2.74-.9609,5.455-1.9413c.0964-.0348.1918-.0707.2882-.1054q2.6641-.9647,5.3038-1.9474c.1011-.0379.201-.0764.302-.1142q2.6223-.9794,5.22-1.9766c.1483-.0571.2948-.1154.443-.1725q2.5287-.9745,5.0344-1.9655c.15-.06.2986-.12.4488-.18q2.4918-.99,4.9607-1.9958c.1856-.0758.3687-.1533.5542-.2293q2.41-.9868,4.7977-1.9887c.2125-.0894.4222-.1808.6346-.27q2.34-.9878,4.6595-1.99c.2319-.1005.46-.2029.692-.3036q2.2786-.9912,4.5373-1.9953c.267-.119.53-.24.7965-.36q2.1955-.9837,4.3721-1.9795c.2959-.1359.5874-.2742.8826-.41q2.1209-.9789,4.2241-1.9688c.3185-.15.6323-.3039.95-.4548q2.0579-.9782,4.0987-1.9663c.3213-.1563.6378-.3154.9584-.4723q2.0181-.9873,4.02-1.9845c.3508-.1755.6964-.3545,1.0463-.5306,1.295-.6525,2.5882-1.3058,3.87-1.9661.3694-.19.7331-.3839,1.1013-.5748,1.2533-.65,2.5052-1.3006,3.7453-1.958.4032-.2137.8-.431,1.202-.6456,1.1978-.64,2.3951-1.28,3.58-1.926.4253-.2319.8438-.4678,1.2674-.7,1.1535-.6342,2.3071-1.2682,3.4484-1.9088.44-.2469.8724-.4975,1.31-.7453,1.1162-.6316,2.233-1.2629,3.3374-1.9007.4672-.27.9267-.5439,1.3918-.8148,1.064-.62,2.1291-1.2391,3.1819-1.8648.51-.3032,1.0119-.6107,1.52-.9153.9995-.6,2.001-1.1985,2.99-1.8033.5221-.3194,1.0354-.6431,1.5546-.9639.9636-.5953,1.93-1.1893,2.8834-1.79.5345-.3364,1.06-.6773,1.5909-1.0153.9279-.59,1.859-1.1792,2.7773-1.7742.541-.3506,1.0723-.7058,1.61-1.0581.8968-.5874,1.7968-1.1732,2.6842-1.7652.5643-.3764,1.1183-.7575,1.6786-1.1357.849-.573,1.7019-1.1443,2.5419-1.7213.6137-.4215,1.2161-.8482,1.825-1.2719.774-.5385,1.553-1.075,2.3192-1.6171.6376-.4512,1.2636-.9075,1.8958-1.361.7276-.5221,1.4608-1.0416,2.1812-1.5668.6277-.4575,1.2433-.92,1.8654-1.38.7108-.5254,1.4271-1.0484,2.1307-1.5769.72-.5407,1.4267-1.087,2.139-1.631.5927-.4527,1.1923-.9025,1.78-1.3575.7521-.5823,1.4905-1.17,2.2339-1.7561.5371-.4233,1.0811-.8437,1.6135-1.269.8787-.7016,1.7427-1.409,2.6089-2.1155.3836-.313.7742-.6231,1.1553-.937q1.8643-1.536,3.6892-3.0869a345.0234,345.0234,0,0,0,63.4585-59.0686C1985.97,1634.9988,2036.5,1512.9756,2036.5,1376c0-.9719-.0206-1.9376-.026-2.908q1.0112-16.5684,1.026-33.592Q2037.5,1336.8282,2037.4694,1334.1687Z" transform="translate(-54.75 6.4417)"/><path id="Carabinas" class="cls-2" d="M1861.5,1336.6267c.3224-8.8219-13.4376-23.6122-33.5953-35.4145l-257.113-170.1517a19.2563,19.2563,0,0,0-1.7361-2.7073c-4.2555-5.5312-10.8516-8.014-16.6547-6.8532h-.3385l-72.8484-3.7726-79.75-97.4065,4.47-33.4986,1.3314-4.8042-30.7845-8.5316q3.3315-13.1319,5.8986-26.2228c22.3461-30.837,41.1571-69.3564,53.54-112.8289q1.7933-6.2954,3.357-12.5636L1559.64,761.3967c1.899-.7531,3.81-1.5645,5.7263-2.45,19.109-8.8248,32.95-21.5713,35.6617-31.7033l229.17-101.7518-10.48-23.6047-.62.2754-157.3176,62.1961-4.866-9.6256,179.2534-81.6009-8.7006-19.1128-20.0249,9.1158a33.204,33.204,0,0,0-9.6314-10.4343c-.2716-.1933-.55-.3607-.8244-.5449a23.5,23.5,0,0,0-41.0062,5.6286q-.8647,1.1146-1.7048,2.2928a62.0688,62.0688,0,0,0-6.9017,12.3505l-234.1633,98.3851-.0552-.13L1077.8334,854.855,642.5125,670.6827l-.0552.13L408.2941,572.428a62.07,62.07,0,0,0-6.9018-12.3505q-.8385-1.1784-1.7048-2.2928a23.5,23.5,0,0,0-41.0061-5.6286c-.2742.1842-.5529.3516-.8245.5449a33.2036,33.2036,0,0,0-9.6313,10.4343L328.2007,554.02,319.5,573.1323l179.2534,81.6009-4.8659,9.6256L336.57,602.1627l-.62-.2754L325.469,625.492l229.17,101.7518c2.7116,10.132,16.5528,22.8785,35.6618,31.7033,1.9165.8851,3.8272,1.6965,5.7263,2.45l122.3643,60.4745q1.5688,6.2671,3.357,12.5636c12.3831,43.4725,31.1942,81.9919,53.54,112.8289q2.5659,13.0843,5.8987,26.2228l-30.7846,8.5316,1.3314,4.8042,4.47,33.4986-79.75,97.4065L603.6047,1121.5h-.3384c-5.8032-1.1608-12.3992,1.322-16.6548,6.8532a19.2653,19.2653,0,0,0-1.7361,2.7073l-257.113,170.1517c-20.1577,11.8023-33.9177,26.5926-33.5953,35.4145A26.3546,26.3546,0,0,0,292.5,1346c0,7.2775,2.7325,13.5555,6.696,16.576,1.2977.37,2.6277.8117,3.9722,1.2861a31.32,31.32,0,0,0,3.32,1.4043c.5825.209,1.1569.3968,1.7178.5642,18.158,7.7989,39.6036,24.0605,59.031,46.202,24.43,27.8436,39.2671,57.664,40.6854,78.2763C412.0454,1498.9844,418.1586,1504.5,425,1504.5a14.2126,14.2126,0,0,0,8.3643-2.9032,23.8778,23.8778,0,0,0,10.603-5.6515,27.1029,27.1029,0,0,0,12.5575-12.129,11.8679,11.8679,0,0,0,4.23-3.0014l44.0888-49.0687c140.2021,100.6169,373.529,72.1375,558.1194-78.6767.6744-.551,1.341-1.107,2.0123-1.66q6.4474-3.1953,12.8581-6.5933,6.411,3.3911,12.858,6.5933c.6714.5529,1.338,1.1089,2.0123,1.66,184.5905,150.8142,417.9173,179.2936,558.12,78.6767l44.0887,49.0687a11.8691,11.8691,0,0,0,4.23,3.0014,27.1024,27.1024,0,0,0,12.5575,12.129,23.8778,23.8778,0,0,0,10.603,5.6515,14.212,14.212,0,0,0,8.3642,2.9032c6.8414,0,12.9546-5.5156,17.0779-14.1911,1.4182-20.6123,16.2549-50.4327,40.6855-78.2763,19.4273-22.1415,40.8729-38.4031,59.0308-46.202.5611-.1674,1.1354-.3552,1.7181-.5642a31.3164,31.3164,0,0,0,3.3195-1.4043c1.3445-.4744,2.6746-.9157,3.9722-1.2861,3.9635-3.0205,6.696-9.2985,6.696-16.576A26.3546,26.3546,0,0,0,1861.5,1336.6267Zm-511.79-210.93q-2.778.4883-5.5282.9057l3.18-3.6291Zm-7.9552,1.26a199.6045,199.6045,0,0,1-34.2718,1.9337q6.5-10.448,12.4766-21.0308Zm-263.9208,159.309A572.2128,572.2128,0,0,1,946.7521,1179.913q-14.2646-15.51-27.11-31.6532C936.1962,1135.069,946.5,1116.5323,946.5,1096a61.8311,61.8311,0,0,0-7.297-28.9931l138.63-70.45,138.63,70.45a61.8311,61.8311,0,0,0-7.297,28.9931c0,20.5323,10.3038,39.069,26.8575,52.26q-12.8583,16.12-27.11,31.6532A572.2128,572.2128,0,0,1,1077.8334,1286.2656Zm-202.31-201.659,40.3871-17.9723c3.9128,9.3016,4.8548,18.5022,2.2521,27.0716-3.0378,10.0023-10.5728,18.03-21.3707,23.8946Q885.47,1101.3083,875.5235,1084.6066Zm361.98,9.0993c-2.6026-8.5694-1.6607-17.77,2.2521-27.0716l40.3871,17.9723q-9.95,16.6849-21.2684,32.9939C1248.0768,1111.7355,1240.5419,1103.7082,1237.504,1093.7059Zm105.4281-169.8134q-3.7667,19.0846-9.2928,38.2753l-10.6411-2.949-29.98-29.98a6.8277,6.8277,0,0,0-.9913-2,7.4971,7.4971,0,0,0-3.6-2.5913l-5.2811-5.281-.5777.5777-.5367-.93-21.3226,12.3106-16.0365-7.73,137.2055-71.3211A325.4613,325.4613,0,0,1,1342.9321,923.8925Zm-530.1975,0a325.4611,325.4611,0,0,1-38.9457-71.6181l137.2054,71.3211-16.0364,7.73-21.3226-12.3106-.5368.93-.5777-.5777-5.2811,5.281a7.4968,7.4968,0,0,0-3.6,2.5913,6.828,6.828,0,0,0-.9914,2l-29.98,29.98-10.6412,2.949Q816.5221,943,812.7346,923.8925Zm35.45,204.9978a199.6056,199.6056,0,0,1-34.2718-1.9337l21.7952-19.0971Q841.6959,1118.4363,848.1843,1128.89Zm-36.6988-2.2876q-2.7487-.4152-5.5282-.9057l2.3484-2.7234Zm-274.213,269.0516,147.7888-164.4821a11.8088,11.8088,0,0,0,2.6087-4.8062l3.4527-1.9935c1.7795.0755,3.5686.1275,5.3773.1275,45.2874,0,82-23.9528,82-53.5a35.8907,35.8907,0,0,0-1.8585-11.3049l15.021-17.42C807.7108,1158.2924,831.9113,1168.5,859,1168.5a105.8017,105.8017,0,0,0,15.2709-1.1025,625.0654,625.0654,0,0,0,42.3909,51.6911,610.47,610.47,0,0,0,112.7938,96.944C866.97,1441.3149,668.3,1469.5035,537.2725,1395.6543Zm588.9387-79.6217a610.47,610.47,0,0,0,112.7937-96.944,625.0668,625.0668,0,0,0,42.391-51.6911,105.7992,105.7992,0,0,0,15.2708,1.1025c27.0887,0,51.2893-10.2076,67.3375-26.2251l15.0211,17.42A35.8908,35.8908,0,0,0,1377.1667,1171c0,29.5472,36.7127,53.5,82,53.5,1.8087,0,3.5979-.052,5.3773-.1275l3.4528,1.9935a11.8074,11.8074,0,0,0,2.6086,4.8062l147.7889,164.4821C1487.3666,1469.5035,1288.6964,1441.3149,1126.2112,1316.0326Z" transform="translate(-54.75 6.4417)"/></svg>