<svg id="PDI" xmlns="http://www.w3.org/2000/svg" viewBox="0 0 2160 2160"><defs><style>.cls-1{fill:#9e9f9c;}.cls-2{fill:#002a5c;}.cls-3{fill:#f6f30f;}</style></defs><title>PDI escudo azul letras amarillas fondo gris</title><g id="Relleno_Exterior" data-name="Relleno Exterior"><path id="Relleno_gris" data-name="Relleno gris" class="cls-1" d="M0,0V2160H2160V0ZM1921.4885,1059.3942c-37.8791,36.5457-73.501,114.8011-90.9927,209.11-16.28,87.7769-12.9077,168.1926,5.581,217.3676-34.3572,21.736-96.5824,95.7325-157.5705,190.288-61.4042,95.2011-103.3,182.9414-108.47,222.8291a1194.9739,1194.9739,0,0,0-120.8943,42.155,894.848,894.848,0,0,0-127.4861,49.9656c-84.0314,40.4013-155.2817,89.7347-206.0028,139.2639q-18.9755,14.8758-35.6528,29.5-16.6533-14.5959-35.6528-29.5c-50.7211-49.5292-121.9714-98.8626-206.0028-139.2639a894.848,894.848,0,0,0-127.4861-49.9656,1194.9739,1194.9739,0,0,0-120.8943-42.155c-5.1707-39.8877-47.066-127.628-108.47-222.8291-60.9879-94.5555-123.2132-168.552-157.57-190.288,18.4887-49.175,21.8613-129.5907,5.581-217.3676-17.4918-94.3088-53.1136-172.5642-90.9927-209.11-.0012-.7989-.0115-1.5949-.0115-2.3942q0-7.965.0937-15.9008a538.14,538.14,0,0,0,30.88-47.54c72.2272-125.1013,85.8138-262.94,46.1039-364.2223C402.95,571.8575,480.8156,474.185,527.5807,351.0373c21.6452-56.9988,34.6807-114.3379,39.749-169.5065,1.5971-1.6114,3.1856-3.237,4.7918-4.8337A551.583,551.583,0,0,0,708.5,193.5c170.9379,0,316.4927-75.4645,371.5-181.0624C1135.0073,118.0355,1280.5621,193.5,1451.5,193.5a551.5816,551.5816,0,0,0,136.3784-16.8029c1.6062,1.5967,3.1948,3.2223,4.792,4.8337,5.0682,55.1686,18.1038,112.5077,39.7489,169.5065,46.765,123.1477,124.6307,220.82,212.0026,278.2992-39.71,101.282-26.1233,239.121,46.104,364.2223a538.14,538.14,0,0,0,30.88,47.54q.0856,7.9383.0937,15.9008C1921.5,1057.7993,1921.49,1058.5953,1921.4885,1059.3942Z"/></g><path id="Escudo" class="cls-2" d="M1921.4063,1041.0992a538.14,538.14,0,0,1-30.88-47.54c-72.2273-125.1013-85.814-262.94-46.104-364.2223-87.3719-57.479-165.2376-155.1515-212.0026-278.2992-21.6451-56.9988-34.6807-114.3379-39.7489-169.5065-1.5972-1.6114-3.1858-3.237-4.792-4.8337A551.5816,551.5816,0,0,1,1451.5,193.5c-170.9379,0-316.4927-75.4645-371.5-181.0624C1024.9927,118.0355,879.4379,193.5,708.5,193.5a551.583,551.583,0,0,1-136.3785-16.8029c-1.6062,1.5967-3.1947,3.2223-4.7918,4.8337-5.0683,55.1686-18.1038,112.5077-39.749,169.5065C480.8156,474.185,402.95,571.8575,315.5781,629.3365c39.71,101.282,26.1233,239.121-46.1039,364.2223a538.14,538.14,0,0,1-30.88,47.54q-.0855,7.9383-.0937,15.9008c0,.7993.01,1.5953.0115,2.3942,37.8791,36.5457,73.5009,114.8011,90.9927,209.11,16.28,87.7769,12.9077,168.1926-5.581,217.3676,34.3572,21.736,96.5825,95.7325,157.57,190.288,61.4044,95.2011,103.3,182.9414,108.47,222.8291a1194.9739,1194.9739,0,0,1,120.8943,42.155,894.848,894.848,0,0,1,127.4861,49.9656c84.0314,40.4013,155.2817,89.7347,206.0028,139.2639q18.9755,14.8758,35.6528,29.5,16.6533-14.5959,35.6528-29.5c50.7211-49.5292,121.9714-98.8626,206.0028-139.2639a894.848,894.848,0,0,1,127.4861-49.9656,1194.9739,1194.9739,0,0,1,120.8943-42.155c5.1708-39.8877,47.0661-127.628,108.47-222.8291,60.9881-94.5555,123.2133-168.552,157.5705-190.288-18.4887-49.175-21.8612-129.5907-5.581-217.3676,17.4917-94.3088,53.1136-172.5642,90.9927-209.11.0012-.7989.0115-1.5949.0115-2.3942Q1921.5,1049.035,1921.4063,1041.0992Z"/><g id="Letras_Pequeñas" data-name="Letras Pequeñas"><g id="Letras_Amarillas" data-name="Letras Amarillas"><polygon id="Letra_I" data-name="Letra I" class="cls-3" points="1722.5 880.5 1722.5 766.5 1484.5 766.5 1484.5 880.5 1519.5 880.5 1519.5 1274.5 1484.5 1274.5 1484.5 1393.5 1722.5 1393.5 1722.5 1274.5 1688.5 1274.5 1688.5 880.5 1722.5 880.5"/><path id="Letra_D" data-name="Letra D" class="cls-3" d="M1273,766.5H955.5v114h37v394h-37v119H1256c97.4783,0,176.5-68.2766,176.5-152.5V908.5C1432.5,830.0756,1361.0894,766.5,1273,766.5Zm-53.2625,114a60.5558,60.5558,0,0,1,18.89,9.0916c12.508,9.004,20.7769,22.2846,24.8727,38.0663V1234.5h-.5559a32.1484,32.1484,0,0,1-.2648,5.2944c-2.0236,15.09-14.5529,27.2841-33.0671,34.7056H1161.5v-394h58.2375Z"/><path id="Letra_P" data-name="Letra P" class="cls-3" d="M915.5132,907.6747a158.2271,158.2271,0,0,0-3.275-27.1747,126.3385,126.3385,0,0,0-24.4295-52.9138c-16.5726-20.8981-39.2928-35.3551-66.2644-43.6539C799.7042,773.87,728.933,766.5,645,766.5H437.5v114h33v394h-33v119h238v-119h-36v-110H800.1047c33.777-7.1367,62.0654-22.8668,81.7154-47.6454a124.3289,124.3289,0,0,0,21.9679-43.0722,212.7526,212.7526,0,0,0,7.2542-23.2824c5.9807-23.6132,9.4578-51.7639,9.4578-82A361.0185,361.0185,0,0,0,915.5132,907.6747ZM746.5,1003.5873c-.3773,10.3966-3.4251,19.9484-9.4526,27.8772-7.5807,9.972-18.89,16.0965-32.29,18.5281-.6518.1912-1.3106.3509-1.97.5074H639.5v-170h56.1763c.1887.0253.38.0417.5684.0686a37.7,37.7,0,0,1,15.1068,4.0363,57.977,57.977,0,0,1,15.6269,9.4074c9.7773,8.247,16.2407,19.2762,19.5216,31.8542Z"/></g></g></svg>