<svg id="PDI" xmlns="http://www.w3.org/2000/svg" viewBox="0 0 2161 2161"><defs><style>.cls-1{fill:#002a5c;}.cls-2{fill:#fff;}</style></defs><title>PDI letras blancas fondo azul</title><g id="Relleno_Exterior" data-name="Relleno Exterior"><rect id="Cuadrado_Completo" data-name="Cuadrado Completo" class="cls-1" width="2161" height="2161"/></g><g id="Letras_Grandes" data-name="Letras Grandes"><g id="Letras_Blancas" data-name="Letras Blancas"><polygon id="Letra_I" data-name="Letra I" class="cls-2" points="2002.749 794.136 2002.749 630.5 1661.122 630.5 1661.122 794.136 1711.361 794.136 1711.361 1359.687 1661.122 1359.687 1661.122 1530.5 2002.749 1530.5 2002.749 1359.687 1953.945 1359.687 1953.945 794.136 2002.749 794.136"/><path id="Letra_D" data-name="Letra D" class="cls-2" d="M1357.0335,630H901.2919V793.6364h53.11v565.55h-53.11V1530h431.34c139.9209,0,253.3493-98.0047,253.3493-218.8995V833.8278C1585.9809,721.2568,1483.4776,630,1357.0335,630ZM1280.58,793.6364a86.92,86.92,0,0,1,27.1145,13.05c17.9541,12.9244,29.8234,31.9875,35.7025,54.6406V1301.77h-.7979a46.1515,46.1515,0,0,1-.38,7.6c-2.9047,21.6605-20.8893,39.1638-47.4648,49.8167h-97.7687v-565.55H1280.58Z" transform="translate(0.5 0.5)"/><path id="Letra_P" data-name="Letra P" class="cls-2" d="M843.8945,832.6431a227.1134,227.1134,0,0,0-4.701-39.0067c-5.9716-28.161-17.5176-53.8242-35.0662-75.9529-23.7884-29.9972-56.4012-50.7488-95.1163-62.661C677.6616,640.5792,576.0761,630,455.5981,630H157.7512V793.6364H205.12v565.55H157.7512V1530H499.378V1359.1866H447.7033V1201.2919H678.2365c48.4837-10.2441,89.089-32.8231,117.2948-68.3906a178.466,178.466,0,0,0,31.5329-61.8261,305.4225,305.4225,0,0,0,10.4127-33.42c8.5847-33.8945,13.5757-74.3023,13.5757-117.7033A518.207,518.207,0,0,0,843.8945,832.6431ZM601.2919,970.3167c-.5416,14.9233-4.9165,28.6341-13.5683,40.0151-10.8815,14.3139-27.1153,23.105-46.35,26.5954-.9357.2745-1.8814.5037-2.8279.7283H447.7033V793.6364h80.6358c.2709.0362.5458.06.816.0984a54.1139,54.1139,0,0,1,21.6844,5.7938A83.2158,83.2158,0,0,1,573.27,813.0321c14.0345,11.8378,23.3121,27.6691,28.0215,45.7237Z" transform="translate(0.5 0.5)"/></g></g></svg>