<svg id="PS_Dao_Programa_Secretaria_DAO_" data-name="PS Dao (Programa Secretaria DAO)" xmlns="http://www.w3.org/2000/svg" viewBox="0 0 2160 2153"><defs><style>.cls-1{fill:#fff;}.cls-2{fill:#84bb45;}</style></defs><title>SP_DAO amarela</title><g id="Amarela"><ellipse id="Relleno_Blanco" data-name="Relleno Blanco" class="cls-1" cx="1080" cy="1076.5" rx="1080" ry="1076.5"/><g id="Hojas"><path id="Hojas_Centrales" data-name="Hojas Centrales" class="cls-2" d="M1080.5,7.5A1079.71,1079.71,0,0,0,665.0037,90.0709c157.2109,37.7125,297.437,106.3953,409.3485,197.1079a838.9029,838.9029,0,0,1,104.2734,100.26c107.2653,123.0606,170.093,272.3014,170.093,433.1715,0,62.8163-6.9513,125.9758-23.5661,184.8728-4.7487,16.8337-16.0647,46.2683-16.2017,47.4034,0,0-10.31,30.022-37.03,66.8177-14.7681,20.3373-31.91,42.9464-51.8369,63.7121,27.325,81.2181,49.3659,226.3659,61.7709,406.67,30.4288-87.7037,65.3162-156.7673,95.8447-190.9848-5.0411-6.522-9.6118-13.0179-13.7825-19.11-13.1021-19.1378-17.5475-34.1936-17.5475-34.1936-.0307-.5569-5.0453-15.3767-6.977-23.7684-6.7582-29.36-8.1-60.317-5.6781-90.7688,6.2034-77.9863,46.1025-147.2777,109.1419-201.7153a432.92,432.92,0,0,1,60.5341-43.53c71.49-42.8268,160.9391-70.7614,259.4236-78.5994a735.352,735.352,0,0,1,123.8227.7371c51.8391,4.6415,115.8957.4158,162.9428,14.03.919.266,1.844.5258,2.75.8056,4.25,1.3126-.3639,13.0759-5.4155,21.418a47.6363,47.6363,0,0,1-3.6753,5.3233c-32.4742,39.74-36.7885,86.8477-54.5664,133.6575l-.0224.0588c-1.3258,3.4912-6.8766,20.1649-8.2022,23.6563-5.099,13.43-8.1707,21.6407-11.5468,33.6817-8.9783,32.02-7.2687,30.2123-9.2673,35.4287-25.4341,66.3824-25.411,66.3485-66.838,135.1232-57.4541,95.3819-163.9283,151.2548-234.6028,158.0418-.4978.0477-19.8191,1.9845-20.3159,2.0382-19.5154,2.11-25.1795,2.3744-39.77,3.3823-.59.0407-19.4849-.9409-20.0723-1.0257-27.9985-4.0432-53.2406-6.8442-101.5959-16.1938,15.0607-122.9231,145.4314-287.5646,343.31-417.401-219.4587,119.6746-368.0059,283.64-382.9995,407.7331a102.5562,102.5562,0,0,1-11.6781-5.5428c-39.27,50.5625-84.21,153.9766-117.282,278.0244-6.2064,23.2788-11.6974,46.1713-16.4685,68.4329-.0752-.0586-.1546-.1157-.23-.1743,1.1695,45.1086,1.7809,91.479,1.7809,138.7954,0,61.3426-1.0263,121.0972-2.9674,178.5677-.7481-.0092-1.4944-.0243-2.2451-.0243-33.51,0-64.4913,9.2837-89.6681,25.01,1.6684-53.484,2.546-108.88,2.546-165.6331,0-313.3874-26.73-585.44-65.9272-721.9094q-2.7914,1.048-5.6266,2.0039c-9.36-256.9187-256.9345-619.9972-640.5065-905.363C831.1427,642.32,1045.41,1003.45,1055.0618,1257.9846c-89.7068,10.2824-136.2327,11.39-187.9755,14.5368-1.0852.0659-35.75-1.3884-36.822-1.58-26.512-4.74-36.8221-6.3205-72.1712-14.221-.9-.2011-35.92-7.7114-36.8222-7.9-128.1406-26.8619-314.555-160.8279-405.6649-366.727C249.9116,733.63,249.9488,733.704,213.1268,593.0742c-2.8935-11.051-.0327-7.0343-11.783-74.2651-2.982-17.0617-5.9653-30.5286-9.8527-46.2217C71.0519,646.246.5,856.909.5,1084c0,594.5345,483.5325,1076.5,1080,1076.5s1080-481.9655,1080-1076.5S1676.9675,7.5,1080.5,7.5Z" transform="translate(-0.5 -7.5)"/><path id="Punta_de_hoja" data-name="Punta de hoja" class="cls-2" d="M665.0037,90.0709q-26.2983-6.3085-53.2111-11.4558A1207.8831,1207.8831,0,0,0,385.454,57.4169c-95.3877,0-211.8086-20.4023-299.7451-1.1457-1.7179.3763-3.4456.7387-5.1414,1.1457-7.9553,1.9091-1.2352,26.849,6.7822,44.8619a102.7593,102.7593,0,0,0,5.9409,11.5772c53.5566,87.3509,54.593,184.63,80.2714,283.7661l.0322.1247c1.915,7.3939,9.6333,42.5631,11.5478,49.9573,2.3945,9.2476,4.4762,17.3225,6.3491,24.8833A1083.1536,1083.1536,0,0,1,665.0037,90.0709Z" transform="translate(-0.5 -7.5)"/></g></g></svg>