<svg id="Bomberos" xmlns="http://www.w3.org/2000/svg" viewBox="0 0 1876.3373 2126.9451"><defs><style>.cls-1,.cls-5{fill:#fff;}.cls-1,.cls-2,.cls-4,.cls-5{stroke:#000;}.cls-1,.cls-2,.cls-3,.cls-4,.cls-5{stroke-miterlimit:10;}.cls-1{stroke-width:17px;}.cls-2{fill:red;stroke-width:12px;}.cls-3{stroke:#fff;stroke-width:10px;}.cls-4{fill:#ff0;}.cls-4,.cls-5{stroke-width:9px;}</style></defs><title>Bomberos</title><g id="Escudo"><path class="cls-1" d="M1980.5909,529.7955c-.3038-2.1436-.627-4.2773-.9408-6.4158-1.1242-.1262-2.2467-.25-3.3718-.3771q-25.4179-2.8821-51.1133-6.2391-16.6627-2.18-33.1613-4.5319c-380.8085-54.1423-695.6837-173.841-824.5864-301.5244-129.604,128.3781-447.2081,248.686-830.806,302.4039q-13.42,1.8794-26.9418,3.6524-26.1468,3.4207-52.0132,6.34-4.1931.4742-8.3791.937-1.164,7.959-2.24,15.962a1426.2661,1426.2661,0,0,0-11.06,244.3248c6.2587,160.99,38.5094,329.6428,99.2947,497.2019,162.7772,448.7071,487.6129,772.2155,829.24,872.8228,341.6272-100.6073,666.4629-424.1157,829.24-872.8228,60.7854-167.5591,93.0361-336.2116,99.2947-497.2019C1996.4519,696.7452,1992.1624,611.4321,1980.5909,529.7955Z" transform="translate(-126.3443 -36.2676)"/><path class="cls-2" d="M1845.4146,622.15c-.259-1.7745-.5346-3.5408-.802-5.3111-.9584-.1045-1.9152-.2066-2.8743-.3122q-21.6676-2.3859-43.5718-5.1649-14.2043-1.8046-28.2685-3.7516C1445.2762,562.7894,1176.86,463.7,1066.9758,358,956.4943,464.2747,685.7514,563.8688,358.7517,608.3379q-11.44,1.5557-22.9667,3.0235-22.289,2.8318-44.3389,5.2483-3.5743.3924-7.1428.7757-.9922,6.5886-1.9093,13.2137a1146.93,1146.93,0,0,0-9.428,202.2585c5.3352,133.272,32.8275,272.887,84.6442,411.5968C496.37,1615.9059,773.2779,1883.7146,1064.5,1967c291.2215-83.2854,568.1291-351.0941,706.8892-722.5456,51.8168-138.71,79.309-278.3248,84.6442-411.5968A1143.6462,1143.6462,0,0,0,1845.4146,622.15Z" transform="translate(-126.3443 -36.2676)"/></g><g id="Casco"><path d="M1438.0866,339.9257C1421.0435,170.6111,1241.545,49.4573,1034.4731,65.3685q-5.6646.4353-11.3548,1.0025-21.1464,2.1285-41.5346,6.0309-3.0681,14.3971-6.9614,29.4813,18.8866-3.502,38.468-5.49a457.0315,457.0315,0,0,1,111.3288,2.262c152.8846,22.1759,272.846,122.05,288.727,253.3444.1966,1.6251.3831,3.2531.5476,4.8877a244.6993,244.6993,0,0,1-2.1191,64.7429q1.7094.3987,3.4254.8054,8.5283,2.016,17.189,4.1957,3.3953.855,6.811,1.7373V380.1075A258.7215,258.7215,0,0,0,1438.0866,339.9257Z" transform="translate(-126.3443 -36.2676)"/><path d="M1723,537.4991v-1.2752q-14.5991-7.5709-30-15.0063a1373.0985,1373.0985,0,0,0-131.1679-54.8314C1519.7032,451.223,1478.4088,438.5319,1439,428.369q-3.4144-.8805-6.811-1.7373-8.66-2.1815-17.189-4.1957-1.715-.4053-3.4254-.8054c-27.0363-6.3056-53.0155-11.3523-77.5746-15.12q-8.1045-1.2434-16-2.3023c-106.9686-14.3309-183.8789-2.9685-197.9163,36.0325a38.4354,38.4354,0,0,0-2.1411,10.1394q7.3066.7086,14.642,1.4476c86.8316,8.7834,169.7514,20.3875,246.2458,34.0187q6.0663,1.0811,12.0738,2.18,8.5635,1.5637,17.014,3.161c97.5818,18.4427,183.6836,40.1611,252.71,63.4,51.4322,7.7187,85.38,8.7225,87.1968,1.1472C1748.8361,551.5168,1739.7532,545.1505,1723,537.4991Z" transform="translate(-126.3443 -36.2676)"/><path d="M831.5762,405H800V391a12.0353,12.0353,0,0,0-12-12H623a11.8894,11.8894,0,0,0-2.7478.3322Q615.728,379.0054,611,379c-33.1371,0-60,12.536-60,28s26.8629,28,60,28q4.72,0,9.2522-.3322A11.8894,11.8894,0,0,0,623,435H783v.1682q11.8617-.1556,23.9708-.1991,22.5951-.0753,46.0292.2559V405Z" transform="translate(-126.3443 -36.2676)"/><path class="cls-3" d="M796.8169,41.3284a11.9054,11.9054,0,0,0-6.7841,1.331q-3.28,5.4734-6.5345,11.1a948.4176,948.4176,0,0,0-48.7989,97.29c-24.9938,57.6721-42.9667,113.8164-53.4645,163.407a514.2618,514.2618,0,0,0-9.76,64.544H788a12.0353,12.0353,0,0,1,12,12v14h31.5762c33.7077-44.4261,67.7-103.0765,96.7244-170.049q1.8508-4.2706,3.6463-8.5286a907.2716,907.2716,0,0,0,42.6754-124.5392q3.9015-15.0747,6.9614-29.4813,1.3071-6.1338,2.4648-12.1341Z" transform="translate(-126.3443 -36.2676)"/><path class="cls-3" d="M1413.6937,356.8877c-.1645-1.6346-.351-3.2626-.5476-4.8877-15.881-131.2941-135.8424-231.1685-288.727-253.3444a457.0315,457.0315,0,0,0-111.3288-2.262q-19.5678,1.97-38.468,5.49a907.2716,907.2716,0,0,1-42.6754,124.5392q-1.7994,4.2587-3.6463,8.5286C899.2764,301.9235,865.2839,360.5739,831.5762,405H853v30.225c82.1242,1.16,171.5381,6.0961,264.9426,15.1547a38.4354,38.4354,0,0,1,2.1411-10.1394c14.0374-39.001,90.9477-50.3634,197.9163-36.0325q7.8921,1.0573,16,2.3023c24.5591,3.7682,50.5383,8.8149,77.5746,15.12a244.6993,244.6993,0,0,0,2.1191-64.7429Z" transform="translate(-126.3443 -36.2676)"/></g><g id="Centro_escudo" data-name="Centro escudo"><g id="Amarillo"><circle class="cls-4" cx="959.6557" cy="1091.7324" r="250.5"/><path class="cls-4" d="M1281.0107,1369.7045l-.0521-.0556A310.463,310.463,0,0,1,883.2635,1364l-.0512.0545-21.2436,22.63a341.5175,341.5175,0,0,0,440.3195,5.686Z" transform="translate(-126.3443 -36.2676)"/><path class="cls-4" d="M1605.41,1134.9459l0-.04q0-1.5816-.0228-3.1523c0-.0343-.0016-.0683-.0021-.1025q-.0219-1.5557-.0659-3.1c-.0014-.053-.0036-.1055-.0051-.1585q-.0439-1.5325-.1084-3.0539l-.0034-.0773c-1.32-31.0687-8.949-58.6087-20.3626-77.66q-2.9652-5.942-6.3764-11.87a205.3422,205.3422,0,0,0-30.7483-40.9217c-6.5555-5.37-13.19-11.3586-19.731-17.8988-17.4945-17.4932-31.1-35.66-39.168-51.1542a142.3746,142.3746,0,0,1-7.3139-14.6984c-14.7316-34.4134-14.1407-69.6941-.7852-91.1377.4142-5.7918-1.4892-10.8263-5.5688-13.1816-3.5247-2.0348-7.9675-1.6452-12.2128.5921l-.1085-.1209-.4953.4443a23.6837,23.6837,0,0,0-4.8506,3.7227l-.1373-.1463-21.5266,20.2094-24.2762,21.7778-9.06,8.128.6773.7551-53.3822,50.1158L1327.15,933.4572a310.463,310.463,0,0,1-5.6342,397.6953l22.2024,20.8408,59.46,55.8138-.6773.755,2.2727,2.0385,31.0661,27.8649,21.5281,20.2078.1373-.1463a23.6856,23.6856,0,0,0,4.8509,3.7223l.4954.4444.1085-.1209c4.2454,2.2369,8.6882,2.6261,12.2128.591,4.08-2.3555,5.9825-7.39,5.5679-13.1819-13.3572-21.4427-13.9506-56.7234.7785-91.1378a142.3689,142.3689,0,0,1,7.3127-14.699c8.0673-15.4948,21.671-33.6625,39.1644-51.1571,6.54-6.5407,13.1745-12.53,19.73-17.9a205.3433,205.3433,0,0,0,30.7453-40.924q3.4179-5.92,6.3755-11.8708c11.4123-19.0526,19.0394-46.5931,20.3568-77.662l.0035-.0773q.0642-1.5216.1082-3.0539c.0015-.0529.0035-.1055.005-.1585q.043-1.545.0658-3.1l.0019-.1024q.0216-1.5714.0229-3.1524Z" transform="translate(-126.3443 -36.2676)"/><path class="cls-4" d="M803.8722,1447.1884l-27.926,31.1319-20.2086,21.5273.1463.1373a23.6893,23.6893,0,0,0-3.7225,4.8507l-.4443.4954.1209.1085c-2.2371,4.2453-2.6265,8.6881-.5915,12.2128,2.3554,4.08,7.39,5.9828,13.1817,5.5683,21.4431-13.3563,56.7238-13.9484,91.1377.7819a142.3466,142.3466,0,0,1,14.6987,7.3133c15.4946,8.0678,33.6618,21.6722,51.1557,39.1661,6.54,6.5406,12.5294,13.1751,17.8995,19.73a205.3424,205.3424,0,0,0,40.9228,30.7468q5.92,3.4181,11.8706,6.376c19.0521,11.4129,46.5924,19.0411,77.6612,20.36l.0773.0035q1.5216.0642,3.0539.1082c.053.0016.1055.0037.1585.0051q1.545.043,3.1.0659l.1024.002q1.5714.0216,3.1524.0229l.04,0,.04,0q1.5816,0,3.1523-.0229l.1025-.002q1.5557-.0219,3.1-.0659c.053-.0014.1055-.0035.1585-.0051q1.5326-.0437,3.0539-.1082l.0773-.0035c31.0688-1.3185,58.609-8.9467,77.6612-20.36q5.9422-2.9651,11.8706-6.376a205.3424,205.3424,0,0,0,40.9228-30.7468c5.37-6.5553,11.359-13.19,17.8995-19.73,17.4939-17.4939,35.6611-31.0983,51.1556-39.1661a142.3583,142.3583,0,0,1,14.6988-7.3133c34.4139-14.73,69.6946-14.1382,91.1377-.7819,5.7918.4145,10.8263-1.4887,13.1817-5.5683,2.035-3.5247,1.6456-7.9675-.5915-12.2128l.1209-.1085-.4443-.4954a23.6893,23.6893,0,0,0-3.7225-4.8507l.1463-.1373L1382.973,1478.32l-22.2111-24.761a426.02,426.02,0,0,1-556.89-6.3709Z" transform="translate(-126.3443 -36.2676)"/><path class="cls-4" d="M1361.2212,802.8309l21.7518-24.2489,20.2086-21.5273-.1463-.1373a23.6893,23.6893,0,0,0,3.7225-4.8507l.4443-.4954-.1209-.1085c2.2371-4.2453,2.6265-8.6881.5915-12.2128-2.3554-4.08-7.39-5.9828-13.1817-5.5684-21.4431,13.3564-56.7238,13.9485-91.1377-.7818a142.3785,142.3785,0,0,1-14.6988-7.3133c-15.4945-8.0678-33.6617-21.6723-51.1556-39.1662-6.5405-6.54-12.5294-13.175-17.8995-19.73a205.3385,205.3385,0,0,0-40.9228-30.7468q-5.92-3.4181-11.8706-6.376c-19.0522-11.413-46.5924-19.0411-77.6612-20.36l-.0773-.0035q-1.5216-.0641-3.0539-.1083c-.053-.0015-.1055-.0036-.1585-.005q-1.545-.043-3.1-.066l-.1025-.002q-1.5712-.0216-3.1523-.0228l-.04,0-.04,0q-1.5816,0-3.1524.0228l-.1024.002q-1.5556.0222-3.1.066c-.053.0014-.1055.0035-.1585.005q-1.5325.0438-3.0539.1083l-.0773.0035c-31.0688,1.3185-58.6091,8.9466-77.6612,20.36q-5.9423,2.9651-11.8706,6.376A205.3385,205.3385,0,0,0,939.32,666.69c-5.37,6.5553-11.359,13.19-17.8995,19.73-17.4939,17.4939-35.6611,31.0984-51.1557,39.1662A142.3667,142.3667,0,0,1,855.5659,732.9c-34.4139,14.73-69.6946,14.1382-91.1377.7818-5.7918-.4144-10.8263,1.4888-13.1817,5.5684-2.035,3.5247-1.6456,7.9675.5915,12.2128l-.1209.1085.4443.4954a23.6893,23.6893,0,0,0,3.7225,4.8507l-.1463.1373,20.2086,21.5273,27.4729,30.6269a426.0226,426.0226,0,0,1,557.8021-6.378Z" transform="translate(-126.3443 -36.2676)"/><path class="cls-4" d="M903.67,876.8066c.2989-.2163.5943-.4367.8939-.6519,1.4346-1.0305,2.883-2.0422,4.3358-3.0487.48-.3324.9575-.6679,1.4393-.9977q2.069-1.4163,4.1644-2.7956.847-.56,1.6963-1.1166,2.041-1.33,4.1044-2.6281.9144-.5759,1.8335-1.1445,2.0467-1.2689,4.1124-2.5092c.6233-.3732,1.25-.74,1.8767-1.11,1.3922-.82,2.7872-1.6358,4.1932-2.4348.5928-.337,1.191-.6654,1.7863-.9986,1.4581-.8159,2.9173-1.63,4.39-2.4227.4513-.2431.9081-.477,1.3607-.7179q7.8986-4.203,16.06-7.9612c.3612-.1661.7184-.34,1.08-.5045,1.4061-.64,2.8245-1.2572,4.2417-1.8768.7808-.3415,1.5579-.6894,2.342-1.0245,1.3083-.5592,2.626-1.1,3.9435-1.6418.9062-.3726,1.8109-.7477,2.7214-1.112,1.2667-.5067,2.54-1,3.8147-1.49q1.4654-.5639,2.9361-1.1162,1.8632-.695,3.7381-1.3654,1.5428-.5531,3.0932-1.0894,1.8408-.6378,3.6906-1.2557c1.0747-.3572,2.1538-.7041,3.2336-1.05,1.2083-.3868,2.4164-.7735,3.631-1.1458,1.1329-.3473,2.2721-.68,3.4106-1.0145,1.1784-.3464,2.3546-.6975,3.5388-1.03,1.2308-.3459,2.47-.6719,3.7066-1.003,1.1047-.2956,2.2052-.6012,3.3147-.8849,1.738-.4445,3.4864-.8627,5.236-1.2777q1.9536-.4633,3.9172-.9c1.6409-.3667,3.2819-.7331,4.9325-1.0738,1.0047-.2072,2.0166-.3947,3.0249-.5922,1.4131-.277,2.8255-.5556,4.2453-.8133,1.0622-.1928,2.13-.3691,3.1959-.5509,1.3785-.2353,2.7572-.4692,4.1418-.6863,1.0852-.17,2.1743-.3278,3.2632-.4866q2.0693-.3018,4.1458-.58,1.638-.2165,3.2815-.4135,2.0992-.2547,4.207-.4809,1.626-.1747,3.2559-.3353c1.4406-.1395,2.8852-.2648,4.3315-.3846,1.0579-.0876,2.1151-.1771,3.176-.2541,1.5147-.11,3.0345-.2,4.5551-.2887,1-.0579,1.9974-.1228,3-.1712,1.6871-.0816,3.3806-.1384,5.0747-.1929.841-.027,1.679-.0659,2.5217-.0863q3.81-.092,7.6408-.0967,3.7689,0,7.5151.0952c.82.0195,1.6361.0547,2.4547.0805,1.6785.053,3.3556.1114,5.0273.191.967.046,1.9306.1038,2.8952.1586q2.2851.13,4.5621.2891,1.5153.1083,3.026.2322,2.2157.18,4.4218.3927c1.0087.0964,2.0174.1924,3.0233.2985,1.4977.158,2.99.3331,4.4814.5123.9564.1148,1.9147.223,2.8684.3465,1.6877.2188,3.3678.4605,5.0469.7063.7423.1085,1.4885.2049,2.2291.3187q3.4993.5381,6.9721,1.1551c.9644.1708,1.9218.3612,2.883.541,1.404.2626,2.8081.5242,4.2052.8057,1.1174.2249,2.2289.4653,3.342.7023,1.2283.2616,2.4559.5249,3.6789.8009q1.7581.3967,3.5073.8166,1.7208.41,3.4341.8381,1.81.4525,3.6118.9235c1.0772.2834,2.15.5773,3.2225.872,1.2441.3417,2.4887.6821,3.7266,1.0388.9695.2795,1.9326.5735,2.8983.8622,1.3241.3957,2.6507.7855,3.9674,1.1983.2143.0673.426.14.64.2079q5.2064,1.6447,10.3286,3.474c.5761.2047,1.156.4014,1.73.61,1.4805.5359,2.95,1.0931,4.42,1.6508.6982.2651,1.3983.5262,2.0942.7962q2.1832.8466,4.3476,1.73,1.0221.4144,2.0416.8342,2.2088.9136,4.4,1.86c.5983.2585,1.1944.5211,1.7907.7833,1.54.677,3.0768,1.3605,4.604,2.0617.3892.1787.7752.3629,1.1636.5432q11.304,5.2467,22.1026,11.3553c.0659.0374.1325.0736.1985.111q2.5689,1.4559,5.1041,2.9631c.2433.1441.4875.2871.73.4319q2.4818,1.4787,4.9327,3.0029.3438.2136.6866.4286,2.531,1.5818,5.0306,3.2079c.0586.0382.1167.0772.1753.1154a311.5071,311.5071,0,0,1,25.9329,18.9087l.0029.0022,21.2774-22.6658a341.5175,341.5175,0,0,0-440.2172,5.6837l21.2447,22.631Q893.1154,884.4378,903.67,876.8066Z" transform="translate(-126.3443 -36.2676)"/><path class="cls-4" d="M775.5159,1128.9132a309.1839,309.1839,0,0,1,69.2606-195.456l-.4885-.4587L821.6228,911.72,768.7681,862.1l.6773-.7551-9.0183-8.09-24.3183-21.8155-21.5266-20.2094-.1373.1463a23.6859,23.6859,0,0,0-4.8505-3.7227l-.4954-.4443-.1085.1209c-4.2453-2.2373-8.6881-2.6269-12.2128-.5921-4.08,2.3553-5.983,7.39-5.5688,13.1816,13.3555,21.4436,13.9464,56.7243-.7853,91.1377a142.3736,142.3736,0,0,1-7.3137,14.6984c-8.0685,15.4943-21.6736,33.661-39.1681,51.1542-6.5407,6.54-13.1755,12.529-19.731,17.8988a205.3422,205.3422,0,0,0-30.7483,40.9217q-3.4182,5.92-6.3764,11.87c-11.4137,19.0518-19.0428,46.5918-20.3625,77.66l-.0035.0773q-.064,1.5216-.1083,3.0539c-.0016.053-.0037.1055-.0052.1585q-.043,1.545-.066,3.1l-.002.1025q-.0216,1.5712-.0229,3.1523l0,.04,0,.04q0,1.5816.0227,3.1524l.002.1024q.0221,1.5558.0658,3.1c.0015.053.0035.1056.0051.1585q.0436,1.5326.1081,3.0539l.0035.0773c1.3174,31.0689,8.9445,58.6094,20.3568,77.662q2.9647,5.9422,6.3755,11.8708a205.34,205.34,0,0,0,30.7453,40.924c6.5551,5.37,13.1894,11.3594,19.73,17.9,17.4934,17.4946,31.0971,35.6623,39.1644,51.1571a142.3689,142.3689,0,0,1,7.3127,14.699c14.7291,34.4144,14.1356,69.6951.7785,91.1378-.4146,5.7918,1.4884,10.8264,5.5679,13.1819,3.5246,2.0351,7.9674,1.6459,12.2128-.591l.1085.1209.4954-.4444a23.6824,23.6824,0,0,0,4.8508-3.7223l.1374.1463,21.528-20.2078,31.1073-27.9018,2.2316-2.0016-.6774-.755,58.9549-55.3393,22.62-21.2333.0874-.082A309.2693,309.2693,0,0,1,775.5159,1128.9132Z" transform="translate(-126.3443 -36.2676)"/></g><g id="Blanco"><path class="cls-5" d="M1411.5414,853.2166a428.6171,428.6171,0,0,0-50.32-50.3857,426.0226,426.0226,0,0,0-557.8021,6.378,428.6146,428.6146,0,0,0-42.992,44.0454l9.0183,8.09-.6773.7551L821.6228,911.72A341.463,341.463,0,0,1,1085.5,787a340.0887,340.0887,0,0,1,216.736,77.5876,343.5639,343.5639,0,0,1,47.54,47.6279L1403.1583,862.1l-.6773-.7551Z" transform="translate(-126.3443 -36.2676)"/><path class="cls-5" d="M1402.501,1408.5621l.6773-.755-59.46-55.8138a343.5869,343.5869,0,0,1-41.43,40.3771,341.5175,341.5175,0,0,1-440.3195-5.686,343.6143,343.6143,0,0,1-34.2658-34.2166l-58.9549,55.3393.6774.755-2.2316,2.0016A426.0469,426.0469,0,0,0,1086,1554a424.2975,424.2975,0,0,0,274.7619-100.4407,428.6025,428.6025,0,0,0,44.0118-42.9587Z" transform="translate(-126.3443 -36.2676)"/></g></g></svg>